<?xml version="1.0" standalone="no"?><!-- Generator: Gravit.io --><svg xmlns="http://www.w3.org/2000/svg" xmlns:xlink="http://www.w3.org/1999/xlink" style="isolation:isolate" viewBox="0 0 392 88.953" width="392" height="88.953"><defs><clipPath id="_clipPath_cg1sCLfwOFcU5xuev36ax8UkUeNPVfQE"><rect width="392" height="88.953"/></clipPath></defs><g clip-path="url(#_clipPath_cg1sCLfwOFcU5xuev36ax8UkUeNPVfQE)"><path d=" M 27.5 0.592 C 12.289 0.592 0 12.881 0 28.092 C 0 43.303 13.75 63.842 27.5 88.592 C 41.25 63.842 55 43.303 55 28.092 C 55 12.881 42.711 0.592 27.5 0.592 Z  M 27.5 39.092 C 21.398 39.092 16.5 34.194 16.5 28.092 C 16.5 21.991 21.398 17.092 27.5 17.092 C 33.602 17.092 38.5 21.991 38.5 28.092 C 38.5 34.194 33.602 39.092 27.5 39.092 Z " fill="rgb(247,197,30)"/><g id="Group"><path d=" M 108.873 16.755 L 114.539 16.755 L 114.539 23.49 L 108.873 23.49 L 108.873 66.906 L 114.35 66.906 L 114.35 73.093 L 108.873 73.093 L 108.873 83.592 C 108.873 86.352 111.113 88.592 113.873 88.592 L 169.801 88.592 C 172.56 88.592 174.801 86.352 174.801 83.592 L 174.801 5.592 C 174.801 2.832 172.56 0.592 169.801 0.592 L 113.873 0.592 C 111.113 0.592 108.873 2.832 108.873 5.592 L 108.873 16.755 L 108.873 16.755 Z  M 127.631 24.927 C 127.802 24.792 129.131 23.795 129.607 23.436 L 129.571 23.427 C 129.616 23.409 129.633 23.409 129.66 23.391 C 129.687 23.355 129.777 23.301 129.795 23.283 L 129.813 23.31 C 130.621 22.835 131.456 22.502 132.408 22.359 C 134.967 21.981 136.835 24.639 138.047 26.166 C 139.26 27.675 140.948 30.081 140.741 31.724 C 140.616 32.712 139.484 33.628 138.407 34.526 L 138.371 34.472 C 138.074 34.786 136.781 36.115 136.673 36.286 C 136.081 37.274 135.398 39.51 136.35 41.189 C 137.257 42.823 139.035 45.472 140.732 47.681 C 142.519 49.827 144.701 52.171 146.093 53.428 C 147.548 54.739 149.936 54.649 151.05 54.326 C 151.265 54.272 153.007 53.23 153.241 53.123 C 154.399 52.323 155.567 51.479 156.608 51.614 C 158.287 51.821 160.245 54.021 161.457 55.529 C 162.669 57.047 164.851 59.471 163.855 61.806 C 163.469 62.686 162.921 63.386 162.229 64.051 L 162.247 64.069 L 162.122 64.159 C 162.104 64.177 162.086 64.203 162.086 64.203 L 162.068 64.212 C 161.61 64.554 160.272 65.577 160.11 65.703 C 158.251 66.906 154.202 68.406 148.518 65.066 C 144.297 62.578 139.673 58.358 135.255 53.078 L 135.237 53.096 C 135.03 52.835 134.842 52.575 134.644 52.315 C 134.438 52.063 134.222 51.821 134.016 51.551 L 134.033 51.533 C 129.885 46.065 126.841 40.641 125.413 36.043 C 123.491 29.83 125.979 26.39 127.631 24.927 L 127.631 24.927 Z " fill="rgb(247,197,30)"/><path d=" M 103 17.213 L 108.424 17.213 L 108.424 22.709 L 103 22.709 L 103 17.213 Z " fill="rgb(247,197,30)"/><path d=" M 103 67.086 L 108.415 67.086 L 108.415 72.312 L 103 72.312 L 103 67.086 Z " fill="rgb(247,197,30)"/><path d=" M 174.575 11.673 L 179.648 11.673 L 179.648 27.603 L 174.575 27.603 L 174.575 11.673 Z " fill="rgb(230,181,20)"/><path d=" M 174.575 61.546 L 179.487 61.546 L 179.487 77.323 L 174.575 77.323 L 174.575 61.546 Z " fill="rgb(230,181,20)"/><path d=" M 174.575 33.843 L 179.567 33.843 L 179.567 55.43 L 174.575 55.43 L 174.575 33.843 L 174.575 33.843 Z " fill="rgb(230,181,20)"/></g><g id="Group"><path d=" M 212.621 26.774 L 212.621 34.592 L 199 26.774 L 212.621 26.774 Z " fill="rgb(252,191,71)"/><path d=" M 297.49 26.774 L 283.869 34.592 L 283.869 26.774 L 297.49 26.774 Z " fill="rgb(252,191,71)"/><path d=" M 212.621 0.592 L 212.621 27.834 L 212.621 35.651 L 248.245 56.123 L 283.869 35.651 L 283.869 27.834 L 283.869 0.592 L 212.621 0.592 Z " fill="rgb(255,255,255)" vector-effect="non-scaling-stroke" stroke-width="0.296" stroke="rgb(162,162,162)" stroke-linejoin="miter" stroke-linecap="butt" stroke-miterlimit="4"/><path d=" M 283.869 34.592 L 297.49 26.774 L 297.49 88.592 L 199 88.592 L 199 26.774 L 212.621 34.592 L 248.245 55.064 L 283.869 34.592 Z " fill="rgb(255,210,72)"/></g><g id="Group"><path d=" M 392 15.22 L 392 83.495 C 392 86.507 389.554 88.953 386.542 88.953 L 340.627 88.953 C 337.615 88.953 335.169 86.507 335.169 83.495 L 335.169 82.264 L 385.311 82.264 L 385.311 9.762 L 386.542 9.762 C 389.554 9.762 392 12.207 392 15.22 Z " fill="rgb(234,191,65)"/><path d=" M 387.634 12.085 L 387.634 79.128 C 387.634 82.141 385.188 84.586 382.176 84.586 L 337.492 84.586 L 336.261 84.586 C 333.248 84.586 330.802 82.141 330.802 79.128 L 330.802 77.897 L 380.944 77.897 L 380.944 5.395 L 382.176 5.395 C 385.188 5.395 387.634 7.841 387.634 10.853 L 387.634 12.085 Z " fill="rgb(247,202,68)"/><path d=" M 382.831 7.281 L 382.831 74.325 C 382.831 77.338 380.386 79.783 377.373 79.783 L 332.689 79.783 L 331.458 79.783 C 328.446 79.783 326 77.338 326 74.325 L 326 6.05 C 326 3.038 328.446 0.592 331.458 0.592 L 377.373 0.592 C 380.386 0.592 382.831 3.038 382.831 6.05 L 382.831 7.281 M 344.857 20.275 L 363.973 20.275 C 364.938 20.275 365.72 19.492 365.72 18.528 C 365.72 17.563 364.938 16.781 363.973 16.781 L 344.857 16.781 C 343.892 16.781 343.11 17.563 343.11 18.528 C 343.11 19.492 343.892 20.275 344.857 20.275 M 382.831 7.281 M 371.883 25.445 L 336.947 25.445 C 335.982 25.445 335.201 26.227 335.201 27.192 C 335.201 28.156 335.982 28.939 336.947 28.939 L 371.883 28.939 C 372.848 28.939 373.63 28.156 373.63 27.192 C 373.63 26.227 372.848 25.445 371.883 25.445 M 382.831 7.281 M 371.883 34.109 L 336.947 34.109 C 335.982 34.109 335.201 34.891 335.201 35.856 C 335.201 36.82 335.982 37.603 336.947 37.603 L 371.883 37.603 C 372.848 37.603 373.63 36.82 373.63 35.856 C 373.63 34.891 372.848 34.109 371.883 34.109 M 382.831 7.281 M 371.883 42.773 L 336.947 42.773 C 335.982 42.773 335.201 43.555 335.201 44.52 C 335.201 45.484 335.982 46.266 336.947 46.266 L 371.883 46.266 C 372.848 46.266 373.63 45.484 373.63 44.52 C 373.63 43.555 372.848 42.773 371.883 42.773 M 382.831 7.281 M 371.883 51.437 L 336.947 51.437 C 335.982 51.437 335.201 52.219 335.201 53.184 C 335.201 54.148 335.982 54.931 336.947 54.931 L 371.883 54.931 C 372.848 54.931 373.63 54.148 373.63 53.184 C 373.63 52.219 372.848 51.437 371.883 51.437 M 382.831 7.281 Z  M 371.883 60.101 L 336.947 60.101 C 335.982 60.101 335.201 60.883 335.201 61.848 C 335.201 62.812 335.982 63.594 336.947 63.594 L 371.883 63.594 C 372.848 63.594 373.63 62.812 373.63 61.848 C 373.63 60.883 372.848 60.101 371.883 60.101 Z " fill-rule="evenodd" fill="rgb(255,210,72)"/></g></g></svg>