<?xml version="1.0" standalone="no"?><!-- Generator: Gravit.io --><svg xmlns="http://www.w3.org/2000/svg" xmlns:xlink="http://www.w3.org/1999/xlink" style="isolation:isolate" viewBox="0 0 232 62.592" width="232" height="62.592"><defs><clipPath id="_clipPath_AegOOYlzQv8S0cfH6gTPCEkLPOcNp1Ma"><rect width="232" height="62.592"/></clipPath></defs><g clip-path="url(#_clipPath_AegOOYlzQv8S0cfH6gTPCEkLPOcNp1Ma)"><path d=" M 8.156 62.592 L 0 62.592 L 0 0 L 8.156 0 L 8.156 62.592 Z " fill="rgb(255,255,255)"/><path d=" M 33.912 62.592 L 20.604 62.592 L 20.604 0.001 L 33.912 0.001 L 33.912 62.592 Z " fill="rgb(255,255,255)"/><path d=" M 90.148 62.592 L 40.353 62.592 L 40.353 0.001 L 90.148 0.001 L 90.148 62.592 Z " fill="rgb(255,255,255)"/><path d=" M 122.614 2.225 L 110.806 16.18 L 123.688 40.333 L 116.334 40.333 L 106.995 20.849 L 103.453 25.143 L 103.453 40.333 L 97.066 40.333 L 97.066 2.225 L 103.453 2.225 L 103.453 18.219 L 115.744 2.225 L 122.614 2.225 Z  M 137.052 13.174 L 137.052 13.174 L 137.052 13.174 Q 143.064 13.174 145.962 16.395 L 145.962 16.395 L 145.962 16.395 Q 148.86 19.615 148.86 26.807 L 148.86 26.807 L 148.86 26.807 Q 148.86 34.107 145.935 37.461 L 145.935 37.461 L 145.935 37.461 Q 143.01 40.816 137.052 40.816 L 137.052 40.816 L 137.052 40.816 Q 130.933 40.816 128.035 37.407 L 128.035 37.407 L 128.035 37.407 Q 125.137 33.999 125.137 26.646 L 125.137 26.646 L 125.137 26.646 Q 125.137 19.561 128.062 16.367 L 128.062 16.367 L 128.062 16.367 Q 130.987 13.174 137.052 13.174 Z  M 136.945 17.683 L 136.945 17.683 L 136.945 17.683 Q 134.046 17.683 132.517 19.749 L 132.517 19.749 L 132.517 19.749 Q 130.987 21.816 130.987 26.324 L 130.987 26.324 L 130.987 26.324 Q 130.987 29.008 131.39 30.913 L 131.39 30.913 L 131.39 30.913 Q 131.792 32.818 132.571 33.999 L 132.571 33.999 L 132.571 33.999 Q 133.349 35.18 134.503 35.717 L 134.503 35.717 L 134.503 35.717 Q 135.657 36.254 137.106 36.254 L 137.106 36.254 L 137.106 36.254 Q 143.064 36.254 143.064 27.129 L 143.064 27.129 L 143.064 27.129 Q 143.064 22.03 141.561 19.856 L 141.561 19.856 L 141.561 19.856 Q 140.058 17.683 136.945 17.683 Z  M 160.507 0.4 L 160.507 40.333 L 154.764 40.333 L 154.764 0.4 L 160.507 0.4 Z  M 203.875 24.768 L 203.875 40.333 L 198.078 40.333 L 198.078 24.445 L 198.078 24.445 Q 198.078 20.903 197.086 19.293 L 197.086 19.293 L 197.086 19.293 Q 196.092 17.683 193.624 17.683 L 193.624 17.683 L 193.624 17.683 Q 190.833 17.683 188.578 20.313 L 188.578 20.313 L 188.578 20.313 Q 188.739 21.225 188.793 22.325 L 188.793 22.325 L 188.793 22.325 Q 188.847 23.426 188.847 24.66 L 188.847 24.66 L 188.847 40.333 L 183.318 40.333 L 183.318 24.338 L 183.318 24.338 Q 183.318 20.796 182.326 19.239 L 182.326 19.239 L 182.326 19.239 Q 181.332 17.683 178.863 17.683 L 178.863 17.683 L 178.863 17.683 Q 177.414 17.683 176.233 18.273 L 176.233 18.273 L 176.233 18.273 Q 175.053 18.863 174.033 19.937 L 174.033 19.937 L 174.033 40.333 L 168.236 40.333 L 168.236 13.55 L 173.55 13.55 L 173.711 16.448 L 173.711 16.448 Q 175.106 14.677 177.039 13.926 L 177.039 13.926 L 177.039 13.926 Q 178.971 13.174 181.279 13.174 L 181.279 13.174 L 181.279 13.174 Q 183.372 13.174 185.09 13.952 L 185.09 13.952 L 185.09 13.952 Q 186.807 14.731 187.719 16.878 L 187.719 16.878 L 187.719 16.878 Q 190.833 13.174 196.039 13.174 L 196.039 13.174 L 196.039 13.174 Q 197.756 13.174 199.206 13.657 L 199.206 13.657 L 199.206 13.657 Q 200.655 14.14 201.702 15.428 L 201.702 15.428 L 201.702 15.428 Q 202.748 16.717 203.312 18.971 L 203.312 18.971 L 203.312 18.971 Q 203.875 21.225 203.875 24.768 L 203.875 24.768 Z  M 231.785 27.72 L 215.2 27.72 L 215.2 27.72 Q 215.254 31.852 217.025 34.053 L 217.025 34.053 L 217.025 34.053 Q 218.796 36.254 222.07 36.254 L 222.07 36.254 L 222.07 36.254 Q 224.378 36.254 225.827 35.18 L 225.827 35.18 L 225.827 35.18 Q 227.277 34.107 227.921 32.228 L 227.921 32.228 L 231.57 33.194 L 231.57 33.194 Q 230.497 36.844 227.894 38.803 L 227.894 38.803 L 227.894 38.803 Q 225.291 40.762 221.748 40.762 L 221.748 40.762 L 221.748 40.762 Q 215.737 40.762 212.624 37.327 L 212.624 37.327 L 212.624 37.327 Q 209.511 33.892 209.511 26.7 L 209.511 26.7 L 209.511 26.7 Q 209.511 13.174 221.05 13.174 L 221.05 13.174 L 221.05 13.174 Q 226.525 13.174 229.262 16.448 L 229.262 16.448 L 229.262 16.448 Q 232 19.722 232 25.251 L 232 25.251 L 232 25.251 Q 232 25.841 231.946 26.458 L 231.946 26.458 L 231.946 26.458 Q 231.892 27.075 231.785 27.72 L 231.785 27.72 Z  M 215.254 24.284 L 226.418 24.284 L 226.418 24.284 Q 226.31 20.957 224.808 19.186 L 224.808 19.186 L 224.808 19.186 Q 223.305 17.414 220.943 17.414 L 220.943 17.414 L 220.943 17.414 Q 218.367 17.414 216.864 19.266 L 216.864 19.266 L 216.864 19.266 Q 215.361 21.118 215.254 24.284 L 215.254 24.284 Z " fill-rule="evenodd" fill="rgb(255,255,255)"/><path d=" M 102.27 55.481 L 102.27 55.481 L 102.27 55.481 Q 103.613 55.481 105.168 54.79 L 105.168 54.79 L 105.648 57.429 L 105.648 57.429 Q 103.863 58.235 101.636 58.235 L 101.636 58.235 L 101.636 58.235 Q 100.398 58.235 99.376 57.856 L 99.376 57.856 L 99.376 57.856 Q 98.354 57.477 97.62 56.8 L 97.62 56.8 L 97.62 56.8 Q 96.886 56.124 96.478 55.193 L 96.478 55.193 L 96.478 55.193 Q 96.07 54.262 96.07 53.168 L 96.07 53.168 L 96.07 53.168 Q 96.07 52.017 96.497 51.081 L 96.497 51.081 L 96.497 51.081 Q 96.924 50.145 97.663 49.478 L 97.663 49.478 L 97.663 49.478 Q 98.402 48.811 99.391 48.451 L 99.391 48.451 L 99.391 48.451 Q 100.379 48.091 101.502 48.091 L 101.502 48.091 L 101.502 48.091 Q 102.634 48.091 103.488 48.47 L 103.488 48.47 L 103.488 48.47 Q 104.343 48.85 104.914 49.507 L 104.914 49.507 L 104.914 49.507 Q 105.485 50.164 105.768 51.042 L 105.768 51.042 L 105.768 51.042 Q 106.051 51.921 106.051 52.919 L 106.051 52.919 L 106.051 52.919 Q 106.051 53.053 106.042 53.178 L 106.042 53.178 L 106.042 53.178 Q 106.032 53.303 106.013 53.418 L 106.013 53.418 L 100.12 54.186 L 100.12 54.186 Q 100.35 54.876 100.888 55.179 L 100.888 55.179 L 100.888 55.179 Q 101.425 55.481 102.27 55.481 Z  M 99.947 52.381 L 102.999 51.709 L 102.999 51.709 Q 102.663 50.481 101.502 50.481 L 101.502 50.481 L 101.502 50.481 Q 101.137 50.481 100.849 50.625 L 100.849 50.625 L 100.849 50.625 Q 100.561 50.769 100.365 51.023 L 100.365 51.023 L 100.365 51.023 Q 100.168 51.278 100.062 51.628 L 100.062 51.628 L 100.062 51.628 Q 99.957 51.978 99.947 52.381 L 99.947 52.381 Z  M 108.782 58.082 L 108.782 48.379 L 112.736 48.379 L 112.736 50.385 L 112.736 50.385 Q 113.311 49.224 114.218 48.658 L 114.218 48.658 L 114.218 48.658 Q 115.125 48.091 116.344 48.091 L 116.344 48.091 L 116.344 48.091 Q 117.323 48.091 118.072 48.456 L 118.072 48.456 L 118.072 48.456 Q 118.82 48.821 119.334 49.488 L 119.334 49.488 L 119.334 49.488 Q 119.847 50.155 120.111 51.091 L 120.111 51.091 L 120.111 51.091 Q 120.375 52.026 120.375 53.168 L 120.375 53.168 L 120.375 58.082 L 116.248 58.082 L 116.248 52.765 L 116.248 52.765 Q 116.248 52.381 116.176 52.055 L 116.176 52.055 L 116.176 52.055 Q 116.104 51.729 115.946 51.494 L 115.946 51.494 L 115.946 51.494 Q 115.788 51.258 115.548 51.129 L 115.548 51.129 L 115.548 51.129 Q 115.308 50.999 114.962 50.999 L 114.962 50.999 L 114.962 50.999 Q 114.54 50.999 114.185 51.206 L 114.185 51.206 L 114.185 51.206 Q 113.83 51.412 113.566 51.709 L 113.566 51.709 L 113.566 51.709 Q 113.302 52.007 113.139 52.328 L 113.139 52.328 L 113.139 52.328 Q 112.976 52.65 112.928 52.88 L 112.928 52.88 L 112.928 58.082 L 108.782 58.082 Z  M 131.416 56.451 L 131.416 56.451 L 131.416 56.451 Q 130.275 58.082 127.885 58.082 L 127.885 58.082 L 127.885 58.082 Q 126.935 58.082 126.071 57.708 L 126.071 57.708 L 126.071 57.708 Q 125.207 57.333 124.555 56.667 L 124.555 56.667 L 124.555 56.667 Q 123.902 55.999 123.518 55.088 L 123.518 55.088 L 123.518 55.088 Q 123.134 54.176 123.134 53.101 L 123.134 53.101 L 123.134 53.101 Q 123.134 51.978 123.533 51.057 L 123.533 51.057 L 123.533 51.057 Q 123.931 50.136 124.588 49.473 L 124.588 49.473 L 124.588 49.473 Q 125.246 48.811 126.1 48.451 L 126.1 48.451 L 126.1 48.451 Q 126.954 48.091 127.866 48.091 L 127.866 48.091 L 127.866 48.091 Q 128.47 48.091 129.003 48.254 L 129.003 48.254 L 129.003 48.254 Q 129.536 48.418 129.958 48.72 L 129.958 48.72 L 129.958 48.72 Q 130.38 49.022 130.683 49.445 L 130.683 49.445 L 130.683 49.445 Q 130.985 49.867 131.129 50.385 L 131.129 50.385 L 131.129 48.091 L 135.274 48.091 L 135.274 55.587 L 135.274 55.587 Q 135.274 57.199 134.915 58.5 L 134.915 58.5 L 134.915 58.5 Q 134.555 59.8 133.806 60.707 L 133.806 60.707 L 133.806 60.707 Q 133.058 61.613 131.906 62.103 L 131.906 62.103 L 131.906 62.103 Q 130.754 62.592 129.171 62.592 L 129.171 62.592 L 129.171 62.592 Q 128.71 62.592 128.192 62.544 L 128.192 62.544 L 128.192 62.544 Q 127.674 62.497 127.098 62.401 L 127.098 62.401 L 127.405 59.464 L 127.405 59.464 Q 128.365 59.579 128.749 59.579 L 128.749 59.579 L 128.749 59.579 Q 129.488 59.579 129.958 59.339 L 129.958 59.339 L 129.958 59.339 Q 130.428 59.099 130.716 58.682 L 130.716 58.682 L 130.716 58.682 Q 131.004 58.264 131.158 57.693 L 131.158 57.693 L 131.158 57.693 Q 131.311 57.122 131.416 56.451 Z  M 131.129 53.245 L 131.129 53.091 L 131.129 53.091 Q 131.109 52.708 130.942 52.367 L 130.942 52.367 L 130.942 52.367 Q 130.774 52.026 130.505 51.767 L 130.505 51.767 L 130.505 51.767 Q 130.236 51.508 129.891 51.359 L 129.891 51.359 L 129.891 51.359 Q 129.545 51.21 129.171 51.21 L 129.171 51.21 L 129.171 51.21 Q 128.749 51.21 128.389 51.369 L 128.389 51.369 L 128.389 51.369 Q 128.029 51.527 127.77 51.796 L 127.77 51.796 L 127.77 51.796 Q 127.511 52.064 127.362 52.419 L 127.362 52.419 L 127.362 52.419 Q 127.213 52.775 127.213 53.168 L 127.213 53.168 L 127.213 53.168 Q 127.213 53.638 127.391 54.003 L 127.391 54.003 L 127.391 54.003 Q 127.568 54.368 127.851 54.617 L 127.851 54.617 L 127.851 54.617 Q 128.134 54.867 128.485 54.997 L 128.485 54.997 L 128.485 54.997 Q 128.835 55.126 129.171 55.126 L 129.171 55.126 L 129.171 55.126 Q 129.565 55.126 129.914 54.973 L 129.914 54.973 L 129.914 54.973 Q 130.265 54.819 130.529 54.56 L 130.529 54.56 L 130.529 54.56 Q 130.793 54.301 130.951 53.96 L 130.951 53.96 L 130.951 53.96 Q 131.109 53.619 131.129 53.245 L 131.129 53.245 Z  M 138.456 44.972 L 138.456 44.972 L 138.456 44.972 Q 138.456 44.54 138.643 44.176 L 138.643 44.176 L 138.643 44.176 Q 138.831 43.811 139.138 43.547 L 139.138 43.547 L 139.138 43.547 Q 139.445 43.283 139.848 43.139 L 139.848 43.139 L 139.848 43.139 Q 140.251 42.995 140.683 42.995 L 140.683 42.995 L 140.683 42.995 Q 141.182 42.995 141.59 43.173 L 141.59 43.173 L 141.59 43.173 Q 141.998 43.35 142.285 43.633 L 142.285 43.633 L 142.285 43.633 Q 142.574 43.917 142.732 44.267 L 142.732 44.267 L 142.732 44.267 Q 142.89 44.617 142.89 44.972 L 142.89 44.972 L 142.89 44.972 Q 142.89 45.414 142.708 45.779 L 142.708 45.779 L 142.708 45.779 Q 142.525 46.143 142.218 46.407 L 142.218 46.407 L 142.218 46.407 Q 141.911 46.671 141.513 46.82 L 141.513 46.82 L 141.513 46.82 Q 141.115 46.968 140.683 46.968 L 140.683 46.968 L 140.683 46.968 Q 140.212 46.968 139.805 46.815 L 139.805 46.815 L 139.805 46.815 Q 139.397 46.661 139.099 46.388 L 139.099 46.388 L 139.099 46.388 Q 138.802 46.114 138.629 45.755 L 138.629 45.755 L 138.629 45.755 Q 138.456 45.395 138.456 44.972 Z  M 144.387 54.819 L 144.599 57.563 L 144.599 57.563 Q 143.437 58.235 142.027 58.235 L 142.027 58.235 L 142.027 58.235 Q 141.191 58.235 140.539 57.957 L 140.539 57.957 L 140.539 57.957 Q 139.886 57.679 139.44 57.165 L 139.44 57.165 L 139.44 57.165 Q 138.994 56.652 138.764 55.922 L 138.764 55.922 L 138.764 55.922 Q 138.533 55.193 138.533 54.301 L 138.533 54.301 L 138.533 48.235 L 142.698 48.235 L 142.698 54.109 L 142.698 54.109 Q 142.698 54.579 142.948 54.814 L 142.948 54.814 L 142.948 54.814 Q 143.197 55.049 143.581 55.049 L 143.581 55.049 L 143.581 55.049 Q 143.965 55.049 144.387 54.819 L 144.387 54.819 Z  M 147.051 58.082 L 147.051 48.379 L 151.005 48.379 L 151.005 50.385 L 151.005 50.385 Q 151.581 49.224 152.488 48.658 L 152.488 48.658 L 152.488 48.658 Q 153.395 48.091 154.613 48.091 L 154.613 48.091 L 154.613 48.091 Q 155.592 48.091 156.341 48.456 L 156.341 48.456 L 156.341 48.456 Q 157.089 48.821 157.603 49.488 L 157.603 49.488 L 157.603 49.488 Q 158.116 50.155 158.38 51.091 L 158.38 51.091 L 158.38 51.091 Q 158.644 52.026 158.644 53.168 L 158.644 53.168 L 158.644 58.082 L 154.517 58.082 L 154.517 52.765 L 154.517 52.765 Q 154.517 52.381 154.445 52.055 L 154.445 52.055 L 154.445 52.055 Q 154.373 51.729 154.215 51.494 L 154.215 51.494 L 154.215 51.494 Q 154.057 51.258 153.817 51.129 L 153.817 51.129 L 153.817 51.129 Q 153.577 50.999 153.231 50.999 L 153.231 50.999 L 153.231 50.999 Q 152.809 50.999 152.454 51.206 L 152.454 51.206 L 152.454 51.206 Q 152.099 51.412 151.835 51.709 L 151.835 51.709 L 151.835 51.709 Q 151.571 52.007 151.408 52.328 L 151.408 52.328 L 151.408 52.328 Q 151.245 52.65 151.197 52.88 L 151.197 52.88 L 151.197 58.082 L 147.051 58.082 Z  M 167.584 55.481 L 167.584 55.481 L 167.584 55.481 Q 168.927 55.481 170.482 54.79 L 170.482 54.79 L 170.962 57.429 L 170.962 57.429 Q 169.177 58.235 166.951 58.235 L 166.951 58.235 L 166.951 58.235 Q 165.713 58.235 164.69 57.856 L 164.69 57.856 L 164.69 57.856 Q 163.668 57.477 162.934 56.8 L 162.934 56.8 L 162.934 56.8 Q 162.2 56.124 161.792 55.193 L 161.792 55.193 L 161.792 55.193 Q 161.384 54.262 161.384 53.168 L 161.384 53.168 L 161.384 53.168 Q 161.384 52.017 161.811 51.081 L 161.811 51.081 L 161.811 51.081 Q 162.239 50.145 162.978 49.478 L 162.978 49.478 L 162.978 49.478 Q 163.716 48.811 164.705 48.451 L 164.705 48.451 L 164.705 48.451 Q 165.693 48.091 166.816 48.091 L 166.816 48.091 L 166.816 48.091 Q 167.948 48.091 168.803 48.47 L 168.803 48.47 L 168.803 48.47 Q 169.657 48.85 170.228 49.507 L 170.228 49.507 L 170.228 49.507 Q 170.799 50.164 171.082 51.042 L 171.082 51.042 L 171.082 51.042 Q 171.365 51.921 171.365 52.919 L 171.365 52.919 L 171.365 52.919 Q 171.365 53.053 171.356 53.178 L 171.356 53.178 L 171.356 53.178 Q 171.346 53.303 171.327 53.418 L 171.327 53.418 L 165.434 54.186 L 165.434 54.186 Q 165.665 54.876 166.202 55.179 L 166.202 55.179 L 166.202 55.179 Q 166.739 55.481 167.584 55.481 Z  M 165.261 52.381 L 168.313 51.709 L 168.313 51.709 Q 167.978 50.481 166.816 50.481 L 166.816 50.481 L 166.816 50.481 Q 166.452 50.481 166.164 50.625 L 166.164 50.625 L 166.164 50.625 Q 165.876 50.769 165.679 51.023 L 165.679 51.023 L 165.679 51.023 Q 165.482 51.278 165.376 51.628 L 165.376 51.628 L 165.376 51.628 Q 165.271 51.978 165.261 52.381 L 165.261 52.381 Z  M 179.816 55.481 L 179.816 55.481 L 179.816 55.481 Q 181.159 55.481 182.714 54.79 L 182.714 54.79 L 183.194 57.429 L 183.194 57.429 Q 181.409 58.235 179.182 58.235 L 179.182 58.235 L 179.182 58.235 Q 177.944 58.235 176.922 57.856 L 176.922 57.856 L 176.922 57.856 Q 175.9 57.477 175.166 56.8 L 175.166 56.8 L 175.166 56.8 Q 174.432 56.124 174.024 55.193 L 174.024 55.193 L 174.024 55.193 Q 173.616 54.262 173.616 53.168 L 173.616 53.168 L 173.616 53.168 Q 173.616 52.017 174.043 51.081 L 174.043 51.081 L 174.043 51.081 Q 174.47 50.145 175.209 49.478 L 175.209 49.478 L 175.209 49.478 Q 175.948 48.811 176.937 48.451 L 176.937 48.451 L 176.937 48.451 Q 177.925 48.091 179.048 48.091 L 179.048 48.091 L 179.048 48.091 Q 180.18 48.091 181.034 48.47 L 181.034 48.47 L 181.034 48.47 Q 181.889 48.85 182.46 49.507 L 182.46 49.507 L 182.46 49.507 Q 183.031 50.164 183.314 51.042 L 183.314 51.042 L 183.314 51.042 Q 183.597 51.921 183.597 52.919 L 183.597 52.919 L 183.597 52.919 Q 183.597 53.053 183.588 53.178 L 183.588 53.178 L 183.588 53.178 Q 183.578 53.303 183.559 53.418 L 183.559 53.418 L 177.666 54.186 L 177.666 54.186 Q 177.896 54.876 178.434 55.179 L 178.434 55.179 L 178.434 55.179 Q 178.971 55.481 179.816 55.481 Z  M 177.493 52.381 L 180.545 51.709 L 180.545 51.709 Q 180.209 50.481 179.048 50.481 L 179.048 50.481 L 179.048 50.481 Q 178.683 50.481 178.395 50.625 L 178.395 50.625 L 178.395 50.625 Q 178.107 50.769 177.911 51.023 L 177.911 51.023 L 177.911 51.023 Q 177.714 51.278 177.608 51.628 L 177.608 51.628 L 177.608 51.628 Q 177.503 51.978 177.493 52.381 L 177.493 52.381 Z  M 186.328 58.082 L 186.328 48.379 L 190.474 48.379 L 190.474 50.385 L 190.474 50.385 Q 190.944 49.195 191.726 48.643 L 191.726 48.643 L 191.726 48.643 Q 192.508 48.091 193.526 48.091 L 193.526 48.091 L 194.101 51.306 L 194.101 51.306 Q 192.23 51.306 191.352 51.705 L 191.352 51.705 L 191.352 51.705 Q 190.474 52.103 190.474 52.976 L 190.474 52.976 L 190.474 58.082 L 186.328 58.082 Z  M 196.304 44.972 L 196.304 44.972 L 196.304 44.972 Q 196.304 44.54 196.491 44.176 L 196.491 44.176 L 196.491 44.176 Q 196.678 43.811 196.986 43.547 L 196.986 43.547 L 196.986 43.547 Q 197.293 43.283 197.696 43.139 L 197.696 43.139 L 197.696 43.139 Q 198.099 42.995 198.531 42.995 L 198.531 42.995 L 198.531 42.995 Q 199.029 42.995 199.437 43.173 L 199.437 43.173 L 199.437 43.173 Q 199.845 43.35 200.133 43.633 L 200.133 43.633 L 200.133 43.633 Q 200.421 43.917 200.58 44.267 L 200.58 44.267 L 200.58 44.267 Q 200.738 44.617 200.738 44.972 L 200.738 44.972 L 200.738 44.972 Q 200.738 45.414 200.556 45.779 L 200.556 45.779 L 200.556 45.779 Q 200.373 46.143 200.066 46.407 L 200.066 46.407 L 200.066 46.407 Q 199.759 46.671 199.361 46.82 L 199.361 46.82 L 199.361 46.82 Q 198.963 46.968 198.531 46.968 L 198.531 46.968 L 198.531 46.968 Q 198.06 46.968 197.652 46.815 L 197.652 46.815 L 197.652 46.815 Q 197.245 46.661 196.947 46.388 L 196.947 46.388 L 196.947 46.388 Q 196.649 46.114 196.477 45.755 L 196.477 45.755 L 196.477 45.755 Q 196.304 45.395 196.304 44.972 Z  M 202.235 54.819 L 202.446 57.563 L 202.446 57.563 Q 201.285 58.235 199.874 58.235 L 199.874 58.235 L 199.874 58.235 Q 199.039 58.235 198.387 57.957 L 198.387 57.957 L 198.387 57.957 Q 197.734 57.679 197.288 57.165 L 197.288 57.165 L 197.288 57.165 Q 196.841 56.652 196.611 55.922 L 196.611 55.922 L 196.611 55.922 Q 196.381 55.193 196.381 54.301 L 196.381 54.301 L 196.381 48.235 L 200.546 48.235 L 200.546 54.109 L 200.546 54.109 Q 200.546 54.579 200.796 54.814 L 200.796 54.814 L 200.796 54.814 Q 201.045 55.049 201.429 55.049 L 201.429 55.049 L 201.429 55.049 Q 201.813 55.049 202.235 54.819 L 202.235 54.819 Z  M 204.899 58.082 L 204.899 48.379 L 208.853 48.379 L 208.853 50.385 L 208.853 50.385 Q 209.428 49.224 210.335 48.658 L 210.335 48.658 L 210.335 48.658 Q 211.242 48.091 212.461 48.091 L 212.461 48.091 L 212.461 48.091 Q 213.44 48.091 214.188 48.456 L 214.188 48.456 L 214.188 48.456 Q 214.937 48.821 215.45 49.488 L 215.45 49.488 L 215.45 49.488 Q 215.964 50.155 216.228 51.091 L 216.228 51.091 L 216.228 51.091 Q 216.492 52.026 216.492 53.168 L 216.492 53.168 L 216.492 58.082 L 212.365 58.082 L 212.365 52.765 L 212.365 52.765 Q 212.365 52.381 212.293 52.055 L 212.293 52.055 L 212.293 52.055 Q 212.221 51.729 212.063 51.494 L 212.063 51.494 L 212.063 51.494 Q 211.905 51.258 211.665 51.129 L 211.665 51.129 L 211.665 51.129 Q 211.425 50.999 211.079 50.999 L 211.079 50.999 L 211.079 50.999 Q 210.657 50.999 210.302 51.206 L 210.302 51.206 L 210.302 51.206 Q 209.947 51.412 209.683 51.709 L 209.683 51.709 L 209.683 51.709 Q 209.419 52.007 209.256 52.328 L 209.256 52.328 L 209.256 52.328 Q 209.093 52.65 209.044 52.88 L 209.044 52.88 L 209.044 58.082 L 204.899 58.082 Z  M 227.533 56.451 L 227.533 56.451 L 227.533 56.451 Q 226.392 58.082 224.002 58.082 L 224.002 58.082 L 224.002 58.082 Q 223.052 58.082 222.188 57.708 L 222.188 57.708 L 222.188 57.708 Q 221.324 57.333 220.672 56.667 L 220.672 56.667 L 220.672 56.667 Q 220.019 55.999 219.635 55.088 L 219.635 55.088 L 219.635 55.088 Q 219.251 54.176 219.251 53.101 L 219.251 53.101 L 219.251 53.101 Q 219.251 51.978 219.649 51.057 L 219.649 51.057 L 219.649 51.057 Q 220.048 50.136 220.705 49.473 L 220.705 49.473 L 220.705 49.473 Q 221.363 48.811 222.217 48.451 L 222.217 48.451 L 222.217 48.451 Q 223.071 48.091 223.983 48.091 L 223.983 48.091 L 223.983 48.091 Q 224.587 48.091 225.12 48.254 L 225.12 48.254 L 225.12 48.254 Q 225.653 48.418 226.075 48.72 L 226.075 48.72 L 226.075 48.72 Q 226.497 49.022 226.799 49.445 L 226.799 49.445 L 226.799 49.445 Q 227.102 49.867 227.246 50.385 L 227.246 50.385 L 227.246 48.091 L 231.391 48.091 L 231.391 55.587 L 231.391 55.587 Q 231.391 57.199 231.032 58.5 L 231.032 58.5 L 231.032 58.5 Q 230.672 59.8 229.923 60.707 L 229.923 60.707 L 229.923 60.707 Q 229.174 61.613 228.023 62.103 L 228.023 62.103 L 228.023 62.103 Q 226.871 62.592 225.288 62.592 L 225.288 62.592 L 225.288 62.592 Q 224.827 62.592 224.309 62.544 L 224.309 62.544 L 224.309 62.544 Q 223.791 62.497 223.215 62.401 L 223.215 62.401 L 223.522 59.464 L 223.522 59.464 Q 224.482 59.579 224.866 59.579 L 224.866 59.579 L 224.866 59.579 Q 225.605 59.579 226.075 59.339 L 226.075 59.339 L 226.075 59.339 Q 226.545 59.099 226.833 58.682 L 226.833 58.682 L 226.833 58.682 Q 227.121 58.264 227.274 57.693 L 227.274 57.693 L 227.274 57.693 Q 227.428 57.122 227.533 56.451 Z  M 227.246 53.245 L 227.246 53.091 L 227.246 53.091 Q 227.226 52.708 227.058 52.367 L 227.058 52.367 L 227.058 52.367 Q 226.891 52.026 226.622 51.767 L 226.622 51.767 L 226.622 51.767 Q 226.353 51.508 226.008 51.359 L 226.008 51.359 L 226.008 51.359 Q 225.662 51.21 225.288 51.21 L 225.288 51.21 L 225.288 51.21 Q 224.866 51.21 224.506 51.369 L 224.506 51.369 L 224.506 51.369 Q 224.146 51.527 223.887 51.796 L 223.887 51.796 L 223.887 51.796 Q 223.628 52.064 223.479 52.419 L 223.479 52.419 L 223.479 52.419 Q 223.33 52.775 223.33 53.168 L 223.33 53.168 L 223.33 53.168 Q 223.33 53.638 223.507 54.003 L 223.507 54.003 L 223.507 54.003 Q 223.685 54.368 223.968 54.617 L 223.968 54.617 L 223.968 54.617 Q 224.251 54.867 224.601 54.997 L 224.601 54.997 L 224.601 54.997 Q 224.952 55.126 225.288 55.126 L 225.288 55.126 L 225.288 55.126 Q 225.681 55.126 226.032 54.973 L 226.032 54.973 L 226.032 54.973 Q 226.382 54.819 226.646 54.56 L 226.646 54.56 L 226.646 54.56 Q 226.91 54.301 227.068 53.96 L 227.068 53.96 L 227.068 53.96 Q 227.226 53.619 227.246 53.245 L 227.246 53.245 Z " fill-rule="evenodd" fill="rgb(247,197,30)"/></g></svg>