<?xml version="1.0" standalone="no"?><!-- Generator: Gravit.io --><svg xmlns="http://www.w3.org/2000/svg" xmlns:xlink="http://www.w3.org/1999/xlink" style="isolation:isolate" viewBox="0 0 202.606 64.989" width="202.606" height="64.989"><defs><clipPath id="_clipPath_1TJQ27Bq3OprdIOcBCAPygmjDzfl7TN8"><rect width="202.606" height="64.989"/></clipPath></defs><g clip-path="url(#_clipPath_1TJQ27Bq3OprdIOcBCAPygmjDzfl7TN8)"><path d=" M 7.601 60.088 L 2.069 60.088 L 2.069 2.069 L 7.601 2.069 L 7.601 60.088 Z " fill="rgb(0,74,152)" vector-effect="non-scaling-stroke" stroke-width="1.034" stroke="rgb(255,255,255)" stroke-opacity="100000000" stroke-linejoin="miter" stroke-linecap="butt" stroke-miterlimit="4"/><path d=" M 25.072 60.088 L 16.045 60.088 L 16.045 2.07 L 25.072 2.07 L 25.072 60.088 Z " fill="rgb(0,74,152)" vector-effect="non-scaling-stroke" stroke-width="1.034" stroke="rgb(255,255,255)" stroke-opacity="100000000" stroke-linejoin="miter" stroke-linecap="butt" stroke-miterlimit="4"/><path d=" M 63.217 60.088 L 29.441 60.088 L 29.441 2.07 L 63.217 2.07 L 63.217 60.088 Z " fill="rgb(0,74,152)" vector-effect="non-scaling-stroke" stroke-width="1.034" stroke="rgb(255,255,255)" stroke-opacity="100000000" stroke-linejoin="miter" stroke-linecap="butt" stroke-miterlimit="4"/><path d=" M 92.683 4.294 L 80.875 18.249 L 93.757 42.402 L 86.403 42.402 L 77.064 22.918 L 73.522 27.212 L 73.522 42.402 L 67.135 42.402 L 67.135 4.294 L 73.522 4.294 L 73.522 20.288 L 85.813 4.294 L 92.683 4.294 Z  M 107.121 15.243 L 107.121 15.243 L 107.121 15.243 Q 113.133 15.243 116.031 18.464 L 116.031 18.464 L 116.031 18.464 Q 118.929 21.684 118.929 28.876 L 118.929 28.876 L 118.929 28.876 Q 118.929 36.176 116.004 39.53 L 116.004 39.53 L 116.004 39.53 Q 113.079 42.885 107.121 42.885 L 107.121 42.885 L 107.121 42.885 Q 101.002 42.885 98.104 39.476 L 98.104 39.476 L 98.104 39.476 Q 95.206 36.068 95.206 28.715 L 95.206 28.715 L 95.206 28.715 Q 95.206 21.63 98.131 18.436 L 98.131 18.436 L 98.131 18.436 Q 101.056 15.243 107.121 15.243 Z  M 107.014 19.752 L 107.014 19.752 L 107.014 19.752 Q 104.115 19.752 102.586 21.818 L 102.586 21.818 L 102.586 21.818 Q 101.056 23.885 101.056 28.393 L 101.056 28.393 L 101.056 28.393 Q 101.056 31.077 101.459 32.982 L 101.459 32.982 L 101.459 32.982 Q 101.861 34.887 102.64 36.068 L 102.64 36.068 L 102.64 36.068 Q 103.418 37.249 104.572 37.786 L 104.572 37.786 L 104.572 37.786 Q 105.726 38.323 107.175 38.323 L 107.175 38.323 L 107.175 38.323 Q 113.133 38.323 113.133 29.198 L 113.133 29.198 L 113.133 29.198 Q 113.133 24.099 111.63 21.925 L 111.63 21.925 L 111.63 21.925 Q 110.127 19.752 107.014 19.752 Z  M 130.576 2.469 L 130.576 42.402 L 124.833 42.402 L 124.833 2.469 L 130.576 2.469 Z  M 173.944 26.837 L 173.944 42.402 L 168.147 42.402 L 168.147 26.514 L 168.147 26.514 Q 168.147 22.972 167.155 21.362 L 167.155 21.362 L 167.155 21.362 Q 166.161 19.752 163.693 19.752 L 163.693 19.752 L 163.693 19.752 Q 160.902 19.752 158.647 22.382 L 158.647 22.382 L 158.647 22.382 Q 158.808 23.294 158.862 24.394 L 158.862 24.394 L 158.862 24.394 Q 158.916 25.495 158.916 26.729 L 158.916 26.729 L 158.916 42.402 L 153.387 42.402 L 153.387 26.407 L 153.387 26.407 Q 153.387 22.865 152.395 21.308 L 152.395 21.308 L 152.395 21.308 Q 151.401 19.752 148.932 19.752 L 148.932 19.752 L 148.932 19.752 Q 147.483 19.752 146.302 20.342 L 146.302 20.342 L 146.302 20.342 Q 145.122 20.932 144.102 22.006 L 144.102 22.006 L 144.102 42.402 L 138.305 42.402 L 138.305 15.619 L 143.619 15.619 L 143.78 18.517 L 143.78 18.517 Q 145.175 16.746 147.108 15.995 L 147.108 15.995 L 147.108 15.995 Q 149.04 15.243 151.348 15.243 L 151.348 15.243 L 151.348 15.243 Q 153.441 15.243 155.159 16.021 L 155.159 16.021 L 155.159 16.021 Q 156.876 16.8 157.788 18.947 L 157.788 18.947 L 157.788 18.947 Q 160.902 15.243 166.108 15.243 L 166.108 15.243 L 166.108 15.243 Q 167.825 15.243 169.275 15.726 L 169.275 15.726 L 169.275 15.726 Q 170.724 16.209 171.771 17.497 L 171.771 17.497 L 171.771 17.497 Q 172.817 18.786 173.381 21.04 L 173.381 21.04 L 173.381 21.04 Q 173.944 23.294 173.944 26.837 L 173.944 26.837 Z  M 201.854 29.789 L 185.269 29.789 L 185.269 29.789 Q 185.323 33.921 187.094 36.122 L 187.094 36.122 L 187.094 36.122 Q 188.865 38.323 192.139 38.323 L 192.139 38.323 L 192.139 38.323 Q 194.447 38.323 195.896 37.249 L 195.896 37.249 L 195.896 37.249 Q 197.346 36.176 197.99 34.297 L 197.99 34.297 L 201.639 35.263 L 201.639 35.263 Q 200.566 38.913 197.963 40.872 L 197.963 40.872 L 197.963 40.872 Q 195.36 42.831 191.817 42.831 L 191.817 42.831 L 191.817 42.831 Q 185.806 42.831 182.693 39.396 L 182.693 39.396 L 182.693 39.396 Q 179.58 35.961 179.58 28.769 L 179.58 28.769 L 179.58 28.769 Q 179.58 15.243 191.119 15.243 L 191.119 15.243 L 191.119 15.243 Q 196.594 15.243 199.331 18.517 L 199.331 18.517 L 199.331 18.517 Q 202.069 21.791 202.069 27.32 L 202.069 27.32 L 202.069 27.32 Q 202.069 27.91 202.015 28.527 L 202.015 28.527 L 202.015 28.527 Q 201.961 29.144 201.854 29.789 L 201.854 29.789 Z  M 185.323 26.353 L 196.487 26.353 L 196.487 26.353 Q 196.379 23.026 194.877 21.255 L 194.877 21.255 L 194.877 21.255 Q 193.374 19.483 191.012 19.483 L 191.012 19.483 L 191.012 19.483 Q 188.436 19.483 186.933 21.335 L 186.933 21.335 L 186.933 21.335 Q 185.43 23.187 185.323 26.353 L 185.323 26.353 Z " fill-rule="evenodd" fill="rgb(0,74,152)" vector-effect="non-scaling-stroke" stroke-width="1.073" stroke="rgb(255,255,255)" stroke-opacity="1000000" stroke-linejoin="miter" stroke-linecap="square" stroke-miterlimit="3"/><path d=" M 72.339 57.55 L 72.339 57.55 L 72.339 57.55 Q 73.682 57.55 75.237 56.859 L 75.237 56.859 L 75.717 59.498 L 75.717 59.498 Q 73.932 60.304 71.705 60.304 L 71.705 60.304 L 71.705 60.304 Q 70.467 60.304 69.445 59.925 L 69.445 59.925 L 69.445 59.925 Q 68.423 59.546 67.689 58.869 L 67.689 58.869 L 67.689 58.869 Q 66.955 58.193 66.547 57.262 L 66.547 57.262 L 66.547 57.262 Q 66.139 56.331 66.139 55.237 L 66.139 55.237 L 66.139 55.237 Q 66.139 54.086 66.566 53.15 L 66.566 53.15 L 66.566 53.15 Q 66.993 52.214 67.732 51.547 L 67.732 51.547 L 67.732 51.547 Q 68.471 50.88 69.46 50.52 L 69.46 50.52 L 69.46 50.52 Q 70.448 50.16 71.571 50.16 L 71.571 50.16 L 71.571 50.16 Q 72.703 50.16 73.557 50.539 L 73.557 50.539 L 73.557 50.539 Q 74.412 50.919 74.983 51.576 L 74.983 51.576 L 74.983 51.576 Q 75.554 52.233 75.837 53.111 L 75.837 53.111 L 75.837 53.111 Q 76.12 53.99 76.12 54.988 L 76.12 54.988 L 76.12 54.988 Q 76.12 55.122 76.111 55.247 L 76.111 55.247 L 76.111 55.247 Q 76.101 55.372 76.082 55.487 L 76.082 55.487 L 70.189 56.255 L 70.189 56.255 Q 70.419 56.945 70.957 57.248 L 70.957 57.248 L 70.957 57.248 Q 71.494 57.55 72.339 57.55 Z  M 70.016 54.45 L 73.068 53.778 L 73.068 53.778 Q 72.732 52.55 71.571 52.55 L 71.571 52.55 L 71.571 52.55 Q 71.206 52.55 70.918 52.694 L 70.918 52.694 L 70.918 52.694 Q 70.63 52.838 70.434 53.092 L 70.434 53.092 L 70.434 53.092 Q 70.237 53.347 70.131 53.697 L 70.131 53.697 L 70.131 53.697 Q 70.026 54.047 70.016 54.45 L 70.016 54.45 Z  M 78.851 60.151 L 78.851 50.448 L 82.805 50.448 L 82.805 52.454 L 82.805 52.454 Q 83.38 51.293 84.287 50.727 L 84.287 50.727 L 84.287 50.727 Q 85.194 50.16 86.413 50.16 L 86.413 50.16 L 86.413 50.16 Q 87.392 50.16 88.141 50.525 L 88.141 50.525 L 88.141 50.525 Q 88.889 50.89 89.403 51.557 L 89.403 51.557 L 89.403 51.557 Q 89.916 52.224 90.18 53.16 L 90.18 53.16 L 90.18 53.16 Q 90.444 54.095 90.444 55.237 L 90.444 55.237 L 90.444 60.151 L 86.317 60.151 L 86.317 54.834 L 86.317 54.834 Q 86.317 54.45 86.245 54.124 L 86.245 54.124 L 86.245 54.124 Q 86.173 53.798 86.015 53.563 L 86.015 53.563 L 86.015 53.563 Q 85.857 53.327 85.617 53.198 L 85.617 53.198 L 85.617 53.198 Q 85.377 53.068 85.031 53.068 L 85.031 53.068 L 85.031 53.068 Q 84.609 53.068 84.254 53.275 L 84.254 53.275 L 84.254 53.275 Q 83.899 53.481 83.635 53.778 L 83.635 53.778 L 83.635 53.778 Q 83.371 54.076 83.208 54.397 L 83.208 54.397 L 83.208 54.397 Q 83.045 54.719 82.997 54.949 L 82.997 54.949 L 82.997 60.151 L 78.851 60.151 Z  M 101.485 58.52 L 101.485 58.52 L 101.485 58.52 Q 100.344 60.151 97.954 60.151 L 97.954 60.151 L 97.954 60.151 Q 97.004 60.151 96.14 59.777 L 96.14 59.777 L 96.14 59.777 Q 95.276 59.402 94.624 58.736 L 94.624 58.736 L 94.624 58.736 Q 93.971 58.068 93.587 57.157 L 93.587 57.157 L 93.587 57.157 Q 93.203 56.245 93.203 55.17 L 93.203 55.17 L 93.203 55.17 Q 93.203 54.047 93.602 53.126 L 93.602 53.126 L 93.602 53.126 Q 94 52.205 94.657 51.542 L 94.657 51.542 L 94.657 51.542 Q 95.315 50.88 96.169 50.52 L 96.169 50.52 L 96.169 50.52 Q 97.023 50.16 97.935 50.16 L 97.935 50.16 L 97.935 50.16 Q 98.539 50.16 99.072 50.323 L 99.072 50.323 L 99.072 50.323 Q 99.605 50.487 100.027 50.789 L 100.027 50.789 L 100.027 50.789 Q 100.449 51.091 100.752 51.514 L 100.752 51.514 L 100.752 51.514 Q 101.054 51.936 101.198 52.454 L 101.198 52.454 L 101.198 50.16 L 105.343 50.16 L 105.343 57.656 L 105.343 57.656 Q 105.343 59.268 104.984 60.569 L 104.984 60.569 L 104.984 60.569 Q 104.624 61.869 103.875 62.776 L 103.875 62.776 L 103.875 62.776 Q 103.127 63.682 101.975 64.172 L 101.975 64.172 L 101.975 64.172 Q 100.823 64.661 99.24 64.661 L 99.24 64.661 L 99.24 64.661 Q 98.779 64.661 98.261 64.613 L 98.261 64.613 L 98.261 64.613 Q 97.743 64.566 97.167 64.47 L 97.167 64.47 L 97.474 61.533 L 97.474 61.533 Q 98.434 61.648 98.818 61.648 L 98.818 61.648 L 98.818 61.648 Q 99.557 61.648 100.027 61.408 L 100.027 61.408 L 100.027 61.408 Q 100.497 61.168 100.785 60.751 L 100.785 60.751 L 100.785 60.751 Q 101.073 60.333 101.227 59.762 L 101.227 59.762 L 101.227 59.762 Q 101.38 59.191 101.485 58.52 Z  M 101.198 55.314 L 101.198 55.16 L 101.198 55.16 Q 101.178 54.777 101.011 54.436 L 101.011 54.436 L 101.011 54.436 Q 100.843 54.095 100.574 53.836 L 100.574 53.836 L 100.574 53.836 Q 100.305 53.577 99.96 53.428 L 99.96 53.428 L 99.96 53.428 Q 99.614 53.279 99.24 53.279 L 99.24 53.279 L 99.24 53.279 Q 98.818 53.279 98.458 53.438 L 98.458 53.438 L 98.458 53.438 Q 98.098 53.596 97.839 53.865 L 97.839 53.865 L 97.839 53.865 Q 97.58 54.133 97.431 54.488 L 97.431 54.488 L 97.431 54.488 Q 97.282 54.844 97.282 55.237 L 97.282 55.237 L 97.282 55.237 Q 97.282 55.707 97.46 56.072 L 97.46 56.072 L 97.46 56.072 Q 97.637 56.437 97.92 56.686 L 97.92 56.686 L 97.92 56.686 Q 98.203 56.936 98.554 57.066 L 98.554 57.066 L 98.554 57.066 Q 98.904 57.195 99.24 57.195 L 99.24 57.195 L 99.24 57.195 Q 99.634 57.195 99.983 57.042 L 99.983 57.042 L 99.983 57.042 Q 100.334 56.888 100.598 56.629 L 100.598 56.629 L 100.598 56.629 Q 100.862 56.37 101.02 56.029 L 101.02 56.029 L 101.02 56.029 Q 101.178 55.688 101.198 55.314 L 101.198 55.314 Z  M 108.525 47.041 L 108.525 47.041 L 108.525 47.041 Q 108.525 46.609 108.712 46.245 L 108.712 46.245 L 108.712 46.245 Q 108.9 45.88 109.207 45.616 L 109.207 45.616 L 109.207 45.616 Q 109.514 45.352 109.917 45.208 L 109.917 45.208 L 109.917 45.208 Q 110.32 45.064 110.752 45.064 L 110.752 45.064 L 110.752 45.064 Q 111.251 45.064 111.659 45.242 L 111.659 45.242 L 111.659 45.242 Q 112.067 45.419 112.354 45.702 L 112.354 45.702 L 112.354 45.702 Q 112.643 45.986 112.801 46.336 L 112.801 46.336 L 112.801 46.336 Q 112.959 46.686 112.959 47.041 L 112.959 47.041 L 112.959 47.041 Q 112.959 47.483 112.777 47.848 L 112.777 47.848 L 112.777 47.848 Q 112.594 48.212 112.287 48.476 L 112.287 48.476 L 112.287 48.476 Q 111.98 48.74 111.582 48.889 L 111.582 48.889 L 111.582 48.889 Q 111.184 49.037 110.752 49.037 L 110.752 49.037 L 110.752 49.037 Q 110.281 49.037 109.874 48.884 L 109.874 48.884 L 109.874 48.884 Q 109.466 48.73 109.168 48.457 L 109.168 48.457 L 109.168 48.457 Q 108.871 48.183 108.698 47.824 L 108.698 47.824 L 108.698 47.824 Q 108.525 47.464 108.525 47.041 Z  M 114.456 56.888 L 114.668 59.632 L 114.668 59.632 Q 113.506 60.304 112.096 60.304 L 112.096 60.304 L 112.096 60.304 Q 111.26 60.304 110.608 60.026 L 110.608 60.026 L 110.608 60.026 Q 109.955 59.748 109.509 59.234 L 109.509 59.234 L 109.509 59.234 Q 109.063 58.721 108.833 57.991 L 108.833 57.991 L 108.833 57.991 Q 108.602 57.262 108.602 56.37 L 108.602 56.37 L 108.602 50.304 L 112.767 50.304 L 112.767 56.178 L 112.767 56.178 Q 112.767 56.648 113.017 56.883 L 113.017 56.883 L 113.017 56.883 Q 113.266 57.118 113.65 57.118 L 113.65 57.118 L 113.65 57.118 Q 114.034 57.118 114.456 56.888 L 114.456 56.888 Z  M 117.12 60.151 L 117.12 50.448 L 121.074 50.448 L 121.074 52.454 L 121.074 52.454 Q 121.65 51.293 122.557 50.727 L 122.557 50.727 L 122.557 50.727 Q 123.464 50.16 124.682 50.16 L 124.682 50.16 L 124.682 50.16 Q 125.661 50.16 126.41 50.525 L 126.41 50.525 L 126.41 50.525 Q 127.158 50.89 127.672 51.557 L 127.672 51.557 L 127.672 51.557 Q 128.185 52.224 128.449 53.16 L 128.449 53.16 L 128.449 53.16 Q 128.713 54.095 128.713 55.237 L 128.713 55.237 L 128.713 60.151 L 124.586 60.151 L 124.586 54.834 L 124.586 54.834 Q 124.586 54.45 124.514 54.124 L 124.514 54.124 L 124.514 54.124 Q 124.442 53.798 124.284 53.563 L 124.284 53.563 L 124.284 53.563 Q 124.126 53.327 123.886 53.198 L 123.886 53.198 L 123.886 53.198 Q 123.646 53.068 123.3 53.068 L 123.3 53.068 L 123.3 53.068 Q 122.878 53.068 122.523 53.275 L 122.523 53.275 L 122.523 53.275 Q 122.168 53.481 121.904 53.778 L 121.904 53.778 L 121.904 53.778 Q 121.64 54.076 121.477 54.397 L 121.477 54.397 L 121.477 54.397 Q 121.314 54.719 121.266 54.949 L 121.266 54.949 L 121.266 60.151 L 117.12 60.151 Z  M 137.653 57.55 L 137.653 57.55 L 137.653 57.55 Q 138.996 57.55 140.551 56.859 L 140.551 56.859 L 141.031 59.498 L 141.031 59.498 Q 139.246 60.304 137.02 60.304 L 137.02 60.304 L 137.02 60.304 Q 135.782 60.304 134.759 59.925 L 134.759 59.925 L 134.759 59.925 Q 133.737 59.546 133.003 58.869 L 133.003 58.869 L 133.003 58.869 Q 132.269 58.193 131.861 57.262 L 131.861 57.262 L 131.861 57.262 Q 131.453 56.331 131.453 55.237 L 131.453 55.237 L 131.453 55.237 Q 131.453 54.086 131.88 53.15 L 131.88 53.15 L 131.88 53.15 Q 132.308 52.214 133.047 51.547 L 133.047 51.547 L 133.047 51.547 Q 133.785 50.88 134.774 50.52 L 134.774 50.52 L 134.774 50.52 Q 135.762 50.16 136.885 50.16 L 136.885 50.16 L 136.885 50.16 Q 138.017 50.16 138.872 50.539 L 138.872 50.539 L 138.872 50.539 Q 139.726 50.919 140.297 51.576 L 140.297 51.576 L 140.297 51.576 Q 140.868 52.233 141.151 53.111 L 141.151 53.111 L 141.151 53.111 Q 141.434 53.99 141.434 54.988 L 141.434 54.988 L 141.434 54.988 Q 141.434 55.122 141.425 55.247 L 141.425 55.247 L 141.425 55.247 Q 141.415 55.372 141.396 55.487 L 141.396 55.487 L 135.503 56.255 L 135.503 56.255 Q 135.734 56.945 136.271 57.248 L 136.271 57.248 L 136.271 57.248 Q 136.808 57.55 137.653 57.55 Z  M 135.33 54.45 L 138.382 53.778 L 138.382 53.778 Q 138.047 52.55 136.885 52.55 L 136.885 52.55 L 136.885 52.55 Q 136.521 52.55 136.233 52.694 L 136.233 52.694 L 136.233 52.694 Q 135.945 52.838 135.748 53.092 L 135.748 53.092 L 135.748 53.092 Q 135.551 53.347 135.445 53.697 L 135.445 53.697 L 135.445 53.697 Q 135.34 54.047 135.33 54.45 L 135.33 54.45 Z  M 149.885 57.55 L 149.885 57.55 L 149.885 57.55 Q 151.228 57.55 152.783 56.859 L 152.783 56.859 L 153.263 59.498 L 153.263 59.498 Q 151.478 60.304 149.251 60.304 L 149.251 60.304 L 149.251 60.304 Q 148.013 60.304 146.991 59.925 L 146.991 59.925 L 146.991 59.925 Q 145.969 59.546 145.235 58.869 L 145.235 58.869 L 145.235 58.869 Q 144.501 58.193 144.093 57.262 L 144.093 57.262 L 144.093 57.262 Q 143.685 56.331 143.685 55.237 L 143.685 55.237 L 143.685 55.237 Q 143.685 54.086 144.112 53.15 L 144.112 53.15 L 144.112 53.15 Q 144.539 52.214 145.278 51.547 L 145.278 51.547 L 145.278 51.547 Q 146.017 50.88 147.006 50.52 L 147.006 50.52 L 147.006 50.52 Q 147.994 50.16 149.117 50.16 L 149.117 50.16 L 149.117 50.16 Q 150.249 50.16 151.103 50.539 L 151.103 50.539 L 151.103 50.539 Q 151.958 50.919 152.529 51.576 L 152.529 51.576 L 152.529 51.576 Q 153.1 52.233 153.383 53.111 L 153.383 53.111 L 153.383 53.111 Q 153.666 53.99 153.666 54.988 L 153.666 54.988 L 153.666 54.988 Q 153.666 55.122 153.657 55.247 L 153.657 55.247 L 153.657 55.247 Q 153.647 55.372 153.628 55.487 L 153.628 55.487 L 147.735 56.255 L 147.735 56.255 Q 147.965 56.945 148.503 57.248 L 148.503 57.248 L 148.503 57.248 Q 149.04 57.55 149.885 57.55 Z  M 147.562 54.45 L 150.614 53.778 L 150.614 53.778 Q 150.278 52.55 149.117 52.55 L 149.117 52.55 L 149.117 52.55 Q 148.752 52.55 148.464 52.694 L 148.464 52.694 L 148.464 52.694 Q 148.176 52.838 147.98 53.092 L 147.98 53.092 L 147.98 53.092 Q 147.783 53.347 147.677 53.697 L 147.677 53.697 L 147.677 53.697 Q 147.572 54.047 147.562 54.45 L 147.562 54.45 Z  M 156.397 60.151 L 156.397 50.448 L 160.543 50.448 L 160.543 52.454 L 160.543 52.454 Q 161.013 51.264 161.795 50.712 L 161.795 50.712 L 161.795 50.712 Q 162.577 50.16 163.595 50.16 L 163.595 50.16 L 164.17 53.375 L 164.17 53.375 Q 162.299 53.375 161.421 53.774 L 161.421 53.774 L 161.421 53.774 Q 160.543 54.172 160.543 55.045 L 160.543 55.045 L 160.543 60.151 L 156.397 60.151 Z  M 166.373 47.041 L 166.373 47.041 L 166.373 47.041 Q 166.373 46.609 166.56 46.245 L 166.56 46.245 L 166.56 46.245 Q 166.747 45.88 167.055 45.616 L 167.055 45.616 L 167.055 45.616 Q 167.362 45.352 167.765 45.208 L 167.765 45.208 L 167.765 45.208 Q 168.168 45.064 168.6 45.064 L 168.6 45.064 L 168.6 45.064 Q 169.098 45.064 169.506 45.242 L 169.506 45.242 L 169.506 45.242 Q 169.914 45.419 170.202 45.702 L 170.202 45.702 L 170.202 45.702 Q 170.49 45.986 170.649 46.336 L 170.649 46.336 L 170.649 46.336 Q 170.807 46.686 170.807 47.041 L 170.807 47.041 L 170.807 47.041 Q 170.807 47.483 170.625 47.848 L 170.625 47.848 L 170.625 47.848 Q 170.442 48.212 170.135 48.476 L 170.135 48.476 L 170.135 48.476 Q 169.828 48.74 169.43 48.889 L 169.43 48.889 L 169.43 48.889 Q 169.032 49.037 168.6 49.037 L 168.6 49.037 L 168.6 49.037 Q 168.129 49.037 167.721 48.884 L 167.721 48.884 L 167.721 48.884 Q 167.314 48.73 167.016 48.457 L 167.016 48.457 L 167.016 48.457 Q 166.718 48.183 166.546 47.824 L 166.546 47.824 L 166.546 47.824 Q 166.373 47.464 166.373 47.041 Z  M 172.304 56.888 L 172.515 59.632 L 172.515 59.632 Q 171.354 60.304 169.943 60.304 L 169.943 60.304 L 169.943 60.304 Q 169.108 60.304 168.456 60.026 L 168.456 60.026 L 168.456 60.026 Q 167.803 59.748 167.357 59.234 L 167.357 59.234 L 167.357 59.234 Q 166.91 58.721 166.68 57.991 L 166.68 57.991 L 166.68 57.991 Q 166.45 57.262 166.45 56.37 L 166.45 56.37 L 166.45 50.304 L 170.615 50.304 L 170.615 56.178 L 170.615 56.178 Q 170.615 56.648 170.865 56.883 L 170.865 56.883 L 170.865 56.883 Q 171.114 57.118 171.498 57.118 L 171.498 57.118 L 171.498 57.118 Q 171.882 57.118 172.304 56.888 L 172.304 56.888 Z  M 174.968 60.151 L 174.968 50.448 L 178.922 50.448 L 178.922 52.454 L 178.922 52.454 Q 179.497 51.293 180.404 50.727 L 180.404 50.727 L 180.404 50.727 Q 181.311 50.16 182.53 50.16 L 182.53 50.16 L 182.53 50.16 Q 183.509 50.16 184.257 50.525 L 184.257 50.525 L 184.257 50.525 Q 185.006 50.89 185.519 51.557 L 185.519 51.557 L 185.519 51.557 Q 186.033 52.224 186.297 53.16 L 186.297 53.16 L 186.297 53.16 Q 186.561 54.095 186.561 55.237 L 186.561 55.237 L 186.561 60.151 L 182.434 60.151 L 182.434 54.834 L 182.434 54.834 Q 182.434 54.45 182.362 54.124 L 182.362 54.124 L 182.362 54.124 Q 182.29 53.798 182.132 53.563 L 182.132 53.563 L 182.132 53.563 Q 181.974 53.327 181.734 53.198 L 181.734 53.198 L 181.734 53.198 Q 181.494 53.068 181.148 53.068 L 181.148 53.068 L 181.148 53.068 Q 180.726 53.068 180.371 53.275 L 180.371 53.275 L 180.371 53.275 Q 180.016 53.481 179.752 53.778 L 179.752 53.778 L 179.752 53.778 Q 179.488 54.076 179.325 54.397 L 179.325 54.397 L 179.325 54.397 Q 179.162 54.719 179.113 54.949 L 179.113 54.949 L 179.113 60.151 L 174.968 60.151 Z  M 197.602 58.52 L 197.602 58.52 L 197.602 58.52 Q 196.461 60.151 194.071 60.151 L 194.071 60.151 L 194.071 60.151 Q 193.121 60.151 192.257 59.777 L 192.257 59.777 L 192.257 59.777 Q 191.393 59.402 190.741 58.736 L 190.741 58.736 L 190.741 58.736 Q 190.088 58.068 189.704 57.157 L 189.704 57.157 L 189.704 57.157 Q 189.32 56.245 189.32 55.17 L 189.32 55.17 L 189.32 55.17 Q 189.32 54.047 189.718 53.126 L 189.718 53.126 L 189.718 53.126 Q 190.117 52.205 190.774 51.542 L 190.774 51.542 L 190.774 51.542 Q 191.432 50.88 192.286 50.52 L 192.286 50.52 L 192.286 50.52 Q 193.14 50.16 194.052 50.16 L 194.052 50.16 L 194.052 50.16 Q 194.656 50.16 195.189 50.323 L 195.189 50.323 L 195.189 50.323 Q 195.722 50.487 196.144 50.789 L 196.144 50.789 L 196.144 50.789 Q 196.566 51.091 196.868 51.514 L 196.868 51.514 L 196.868 51.514 Q 197.171 51.936 197.315 52.454 L 197.315 52.454 L 197.315 50.16 L 201.46 50.16 L 201.46 57.656 L 201.46 57.656 Q 201.46 59.268 201.101 60.569 L 201.101 60.569 L 201.101 60.569 Q 200.741 61.869 199.992 62.776 L 199.992 62.776 L 199.992 62.776 Q 199.243 63.682 198.092 64.172 L 198.092 64.172 L 198.092 64.172 Q 196.94 64.661 195.357 64.661 L 195.357 64.661 L 195.357 64.661 Q 194.896 64.661 194.378 64.613 L 194.378 64.613 L 194.378 64.613 Q 193.86 64.566 193.284 64.47 L 193.284 64.47 L 193.591 61.533 L 193.591 61.533 Q 194.551 61.648 194.935 61.648 L 194.935 61.648 L 194.935 61.648 Q 195.674 61.648 196.144 61.408 L 196.144 61.408 L 196.144 61.408 Q 196.614 61.168 196.902 60.751 L 196.902 60.751 L 196.902 60.751 Q 197.19 60.333 197.343 59.762 L 197.343 59.762 L 197.343 59.762 Q 197.497 59.191 197.602 58.52 Z  M 197.315 55.314 L 197.315 55.16 L 197.315 55.16 Q 197.295 54.777 197.127 54.436 L 197.127 54.436 L 197.127 54.436 Q 196.96 54.095 196.691 53.836 L 196.691 53.836 L 196.691 53.836 Q 196.422 53.577 196.077 53.428 L 196.077 53.428 L 196.077 53.428 Q 195.731 53.279 195.357 53.279 L 195.357 53.279 L 195.357 53.279 Q 194.935 53.279 194.575 53.438 L 194.575 53.438 L 194.575 53.438 Q 194.215 53.596 193.956 53.865 L 193.956 53.865 L 193.956 53.865 Q 193.697 54.133 193.548 54.488 L 193.548 54.488 L 193.548 54.488 Q 193.399 54.844 193.399 55.237 L 193.399 55.237 L 193.399 55.237 Q 193.399 55.707 193.576 56.072 L 193.576 56.072 L 193.576 56.072 Q 193.754 56.437 194.037 56.686 L 194.037 56.686 L 194.037 56.686 Q 194.32 56.936 194.67 57.066 L 194.67 57.066 L 194.67 57.066 Q 195.021 57.195 195.357 57.195 L 195.357 57.195 L 195.357 57.195 Q 195.75 57.195 196.101 57.042 L 196.101 57.042 L 196.101 57.042 Q 196.451 56.888 196.715 56.629 L 196.715 56.629 L 196.715 56.629 Q 196.979 56.37 197.137 56.029 L 197.137 56.029 L 197.137 56.029 Q 197.295 55.688 197.315 55.314 L 197.315 55.314 Z " fill-rule="evenodd" fill="rgb(255,153,0)" fill-opacity="0.8" vector-effect="non-scaling-stroke" stroke-width="0.655" stroke="rgb(255,255,255)" stroke-opacity="100" stroke-linejoin="miter" stroke-linecap="square" stroke-miterlimit="3"/></g></svg>