<?xml version="1.0" standalone="no"?><!-- Generator: Gravit.io --><svg xmlns="http://www.w3.org/2000/svg" xmlns:xlink="http://www.w3.org/1999/xlink" style="isolation:isolate" viewBox="0 0 203 62.592" width="203" height="62.592"><defs><clipPath id="_clipPath_jUMB407MhTzUsuh5DfPg0e8iKjzzfu0V"><rect width="203" height="62.592"/></clipPath></defs><g clip-path="url(#_clipPath_jUMB407MhTzUsuh5DfPg0e8iKjzzfu0V)"><path d=" M 5.532 62.592 L 0 62.592 L 0 0 L 5.532 0 L 5.532 62.592 Z " fill="rgb(255,255,255)"/><path d=" M 23.003 62.592 L 13.976 62.592 L 13.976 0.001 L 23.003 0.001 L 23.003 62.592 Z " fill="rgb(255,255,255)"/><path d=" M 61.148 62.592 L 27.372 62.592 L 27.372 0.001 L 61.148 0.001 L 61.148 62.592 Z " fill="rgb(255,255,255)"/><path d=" M 93.614 2.225 L 81.806 16.18 L 94.688 40.333 L 87.334 40.333 L 77.995 20.849 L 74.453 25.143 L 74.453 40.333 L 68.066 40.333 L 68.066 2.225 L 74.453 2.225 L 74.453 18.219 L 86.744 2.225 L 93.614 2.225 Z  M 108.052 13.174 L 108.052 13.174 L 108.052 13.174 Q 114.064 13.174 116.962 16.395 L 116.962 16.395 L 116.962 16.395 Q 119.86 19.615 119.86 26.807 L 119.86 26.807 L 119.86 26.807 Q 119.86 34.107 116.935 37.461 L 116.935 37.461 L 116.935 37.461 Q 114.01 40.816 108.052 40.816 L 108.052 40.816 L 108.052 40.816 Q 101.933 40.816 99.035 37.407 L 99.035 37.407 L 99.035 37.407 Q 96.137 33.999 96.137 26.646 L 96.137 26.646 L 96.137 26.646 Q 96.137 19.561 99.062 16.367 L 99.062 16.367 L 99.062 16.367 Q 101.987 13.174 108.052 13.174 Z  M 107.945 17.683 L 107.945 17.683 L 107.945 17.683 Q 105.046 17.683 103.517 19.749 L 103.517 19.749 L 103.517 19.749 Q 101.987 21.816 101.987 26.324 L 101.987 26.324 L 101.987 26.324 Q 101.987 29.008 102.39 30.913 L 102.39 30.913 L 102.39 30.913 Q 102.792 32.818 103.571 33.999 L 103.571 33.999 L 103.571 33.999 Q 104.349 35.18 105.503 35.717 L 105.503 35.717 L 105.503 35.717 Q 106.657 36.254 108.106 36.254 L 108.106 36.254 L 108.106 36.254 Q 114.064 36.254 114.064 27.129 L 114.064 27.129 L 114.064 27.129 Q 114.064 22.03 112.561 19.856 L 112.561 19.856 L 112.561 19.856 Q 111.058 17.683 107.945 17.683 Z  M 131.507 0.4 L 131.507 40.333 L 125.764 40.333 L 125.764 0.4 L 131.507 0.4 Z  M 174.875 24.768 L 174.875 40.333 L 169.078 40.333 L 169.078 24.445 L 169.078 24.445 Q 169.078 20.903 168.086 19.293 L 168.086 19.293 L 168.086 19.293 Q 167.092 17.683 164.624 17.683 L 164.624 17.683 L 164.624 17.683 Q 161.833 17.683 159.578 20.313 L 159.578 20.313 L 159.578 20.313 Q 159.739 21.225 159.793 22.325 L 159.793 22.325 L 159.793 22.325 Q 159.847 23.426 159.847 24.66 L 159.847 24.66 L 159.847 40.333 L 154.318 40.333 L 154.318 24.338 L 154.318 24.338 Q 154.318 20.796 153.326 19.239 L 153.326 19.239 L 153.326 19.239 Q 152.332 17.683 149.863 17.683 L 149.863 17.683 L 149.863 17.683 Q 148.414 17.683 147.233 18.273 L 147.233 18.273 L 147.233 18.273 Q 146.053 18.863 145.033 19.937 L 145.033 19.937 L 145.033 40.333 L 139.236 40.333 L 139.236 13.55 L 144.55 13.55 L 144.711 16.448 L 144.711 16.448 Q 146.106 14.677 148.039 13.926 L 148.039 13.926 L 148.039 13.926 Q 149.971 13.174 152.279 13.174 L 152.279 13.174 L 152.279 13.174 Q 154.372 13.174 156.09 13.952 L 156.09 13.952 L 156.09 13.952 Q 157.807 14.731 158.719 16.878 L 158.719 16.878 L 158.719 16.878 Q 161.833 13.174 167.039 13.174 L 167.039 13.174 L 167.039 13.174 Q 168.756 13.174 170.206 13.657 L 170.206 13.657 L 170.206 13.657 Q 171.655 14.14 172.702 15.428 L 172.702 15.428 L 172.702 15.428 Q 173.748 16.717 174.312 18.971 L 174.312 18.971 L 174.312 18.971 Q 174.875 21.225 174.875 24.768 L 174.875 24.768 Z  M 202.785 27.72 L 186.2 27.72 L 186.2 27.72 Q 186.254 31.852 188.025 34.053 L 188.025 34.053 L 188.025 34.053 Q 189.796 36.254 193.07 36.254 L 193.07 36.254 L 193.07 36.254 Q 195.378 36.254 196.827 35.18 L 196.827 35.18 L 196.827 35.18 Q 198.277 34.107 198.921 32.228 L 198.921 32.228 L 202.57 33.194 L 202.57 33.194 Q 201.497 36.844 198.894 38.803 L 198.894 38.803 L 198.894 38.803 Q 196.291 40.762 192.748 40.762 L 192.748 40.762 L 192.748 40.762 Q 186.737 40.762 183.624 37.327 L 183.624 37.327 L 183.624 37.327 Q 180.511 33.892 180.511 26.7 L 180.511 26.7 L 180.511 26.7 Q 180.511 13.174 192.05 13.174 L 192.05 13.174 L 192.05 13.174 Q 197.525 13.174 200.262 16.448 L 200.262 16.448 L 200.262 16.448 Q 203 19.722 203 25.251 L 203 25.251 L 203 25.251 Q 203 25.841 202.946 26.458 L 202.946 26.458 L 202.946 26.458 Q 202.892 27.075 202.785 27.72 L 202.785 27.72 Z  M 186.254 24.284 L 197.418 24.284 L 197.418 24.284 Q 197.31 20.957 195.808 19.186 L 195.808 19.186 L 195.808 19.186 Q 194.305 17.414 191.943 17.414 L 191.943 17.414 L 191.943 17.414 Q 189.367 17.414 187.864 19.266 L 187.864 19.266 L 187.864 19.266 Q 186.361 21.118 186.254 24.284 L 186.254 24.284 Z " fill-rule="evenodd" fill="rgb(255,255,255)"/><path d=" M 73.27 55.481 L 73.27 55.481 L 73.27 55.481 Q 74.613 55.481 76.168 54.79 L 76.168 54.79 L 76.648 57.429 L 76.648 57.429 Q 74.863 58.235 72.636 58.235 L 72.636 58.235 L 72.636 58.235 Q 71.398 58.235 70.376 57.856 L 70.376 57.856 L 70.376 57.856 Q 69.354 57.477 68.62 56.8 L 68.62 56.8 L 68.62 56.8 Q 67.886 56.124 67.478 55.193 L 67.478 55.193 L 67.478 55.193 Q 67.07 54.262 67.07 53.168 L 67.07 53.168 L 67.07 53.168 Q 67.07 52.017 67.497 51.081 L 67.497 51.081 L 67.497 51.081 Q 67.924 50.145 68.663 49.478 L 68.663 49.478 L 68.663 49.478 Q 69.402 48.811 70.391 48.451 L 70.391 48.451 L 70.391 48.451 Q 71.379 48.091 72.502 48.091 L 72.502 48.091 L 72.502 48.091 Q 73.634 48.091 74.488 48.47 L 74.488 48.47 L 74.488 48.47 Q 75.343 48.85 75.914 49.507 L 75.914 49.507 L 75.914 49.507 Q 76.485 50.164 76.768 51.042 L 76.768 51.042 L 76.768 51.042 Q 77.051 51.921 77.051 52.919 L 77.051 52.919 L 77.051 52.919 Q 77.051 53.053 77.042 53.178 L 77.042 53.178 L 77.042 53.178 Q 77.032 53.303 77.013 53.418 L 77.013 53.418 L 71.12 54.186 L 71.12 54.186 Q 71.35 54.876 71.888 55.179 L 71.888 55.179 L 71.888 55.179 Q 72.425 55.481 73.27 55.481 Z  M 70.947 52.381 L 73.999 51.709 L 73.999 51.709 Q 73.663 50.481 72.502 50.481 L 72.502 50.481 L 72.502 50.481 Q 72.137 50.481 71.849 50.625 L 71.849 50.625 L 71.849 50.625 Q 71.561 50.769 71.365 51.023 L 71.365 51.023 L 71.365 51.023 Q 71.168 51.278 71.062 51.628 L 71.062 51.628 L 71.062 51.628 Q 70.957 51.978 70.947 52.381 L 70.947 52.381 Z  M 79.782 58.082 L 79.782 48.379 L 83.736 48.379 L 83.736 50.385 L 83.736 50.385 Q 84.311 49.224 85.218 48.658 L 85.218 48.658 L 85.218 48.658 Q 86.125 48.091 87.344 48.091 L 87.344 48.091 L 87.344 48.091 Q 88.323 48.091 89.072 48.456 L 89.072 48.456 L 89.072 48.456 Q 89.82 48.821 90.334 49.488 L 90.334 49.488 L 90.334 49.488 Q 90.847 50.155 91.111 51.091 L 91.111 51.091 L 91.111 51.091 Q 91.375 52.026 91.375 53.168 L 91.375 53.168 L 91.375 58.082 L 87.248 58.082 L 87.248 52.765 L 87.248 52.765 Q 87.248 52.381 87.176 52.055 L 87.176 52.055 L 87.176 52.055 Q 87.104 51.729 86.946 51.494 L 86.946 51.494 L 86.946 51.494 Q 86.788 51.258 86.548 51.129 L 86.548 51.129 L 86.548 51.129 Q 86.308 50.999 85.962 50.999 L 85.962 50.999 L 85.962 50.999 Q 85.54 50.999 85.185 51.206 L 85.185 51.206 L 85.185 51.206 Q 84.83 51.412 84.566 51.709 L 84.566 51.709 L 84.566 51.709 Q 84.302 52.007 84.139 52.328 L 84.139 52.328 L 84.139 52.328 Q 83.976 52.65 83.928 52.88 L 83.928 52.88 L 83.928 58.082 L 79.782 58.082 Z  M 102.416 56.451 L 102.416 56.451 L 102.416 56.451 Q 101.275 58.082 98.885 58.082 L 98.885 58.082 L 98.885 58.082 Q 97.935 58.082 97.071 57.708 L 97.071 57.708 L 97.071 57.708 Q 96.207 57.333 95.555 56.667 L 95.555 56.667 L 95.555 56.667 Q 94.902 55.999 94.518 55.088 L 94.518 55.088 L 94.518 55.088 Q 94.134 54.176 94.134 53.101 L 94.134 53.101 L 94.134 53.101 Q 94.134 51.978 94.533 51.057 L 94.533 51.057 L 94.533 51.057 Q 94.931 50.136 95.588 49.473 L 95.588 49.473 L 95.588 49.473 Q 96.246 48.811 97.1 48.451 L 97.1 48.451 L 97.1 48.451 Q 97.954 48.091 98.866 48.091 L 98.866 48.091 L 98.866 48.091 Q 99.47 48.091 100.003 48.254 L 100.003 48.254 L 100.003 48.254 Q 100.536 48.418 100.958 48.72 L 100.958 48.72 L 100.958 48.72 Q 101.38 49.022 101.683 49.445 L 101.683 49.445 L 101.683 49.445 Q 101.985 49.867 102.129 50.385 L 102.129 50.385 L 102.129 48.091 L 106.274 48.091 L 106.274 55.587 L 106.274 55.587 Q 106.274 57.199 105.915 58.5 L 105.915 58.5 L 105.915 58.5 Q 105.555 59.8 104.806 60.707 L 104.806 60.707 L 104.806 60.707 Q 104.058 61.613 102.906 62.103 L 102.906 62.103 L 102.906 62.103 Q 101.754 62.592 100.171 62.592 L 100.171 62.592 L 100.171 62.592 Q 99.71 62.592 99.192 62.544 L 99.192 62.544 L 99.192 62.544 Q 98.674 62.497 98.098 62.401 L 98.098 62.401 L 98.405 59.464 L 98.405 59.464 Q 99.365 59.579 99.749 59.579 L 99.749 59.579 L 99.749 59.579 Q 100.488 59.579 100.958 59.339 L 100.958 59.339 L 100.958 59.339 Q 101.428 59.099 101.716 58.682 L 101.716 58.682 L 101.716 58.682 Q 102.004 58.264 102.158 57.693 L 102.158 57.693 L 102.158 57.693 Q 102.311 57.122 102.416 56.451 Z  M 102.129 53.245 L 102.129 53.091 L 102.129 53.091 Q 102.109 52.708 101.942 52.367 L 101.942 52.367 L 101.942 52.367 Q 101.774 52.026 101.505 51.767 L 101.505 51.767 L 101.505 51.767 Q 101.236 51.508 100.891 51.359 L 100.891 51.359 L 100.891 51.359 Q 100.545 51.21 100.171 51.21 L 100.171 51.21 L 100.171 51.21 Q 99.749 51.21 99.389 51.369 L 99.389 51.369 L 99.389 51.369 Q 99.029 51.527 98.77 51.796 L 98.77 51.796 L 98.77 51.796 Q 98.511 52.064 98.362 52.419 L 98.362 52.419 L 98.362 52.419 Q 98.213 52.775 98.213 53.168 L 98.213 53.168 L 98.213 53.168 Q 98.213 53.638 98.391 54.003 L 98.391 54.003 L 98.391 54.003 Q 98.568 54.368 98.851 54.617 L 98.851 54.617 L 98.851 54.617 Q 99.134 54.867 99.485 54.997 L 99.485 54.997 L 99.485 54.997 Q 99.835 55.126 100.171 55.126 L 100.171 55.126 L 100.171 55.126 Q 100.565 55.126 100.914 54.973 L 100.914 54.973 L 100.914 54.973 Q 101.265 54.819 101.529 54.56 L 101.529 54.56 L 101.529 54.56 Q 101.793 54.301 101.951 53.96 L 101.951 53.96 L 101.951 53.96 Q 102.109 53.619 102.129 53.245 L 102.129 53.245 Z  M 109.456 44.972 L 109.456 44.972 L 109.456 44.972 Q 109.456 44.54 109.643 44.176 L 109.643 44.176 L 109.643 44.176 Q 109.831 43.811 110.138 43.547 L 110.138 43.547 L 110.138 43.547 Q 110.445 43.283 110.848 43.139 L 110.848 43.139 L 110.848 43.139 Q 111.251 42.995 111.683 42.995 L 111.683 42.995 L 111.683 42.995 Q 112.182 42.995 112.59 43.173 L 112.59 43.173 L 112.59 43.173 Q 112.998 43.35 113.285 43.633 L 113.285 43.633 L 113.285 43.633 Q 113.574 43.917 113.732 44.267 L 113.732 44.267 L 113.732 44.267 Q 113.89 44.617 113.89 44.972 L 113.89 44.972 L 113.89 44.972 Q 113.89 45.414 113.708 45.779 L 113.708 45.779 L 113.708 45.779 Q 113.525 46.143 113.218 46.407 L 113.218 46.407 L 113.218 46.407 Q 112.911 46.671 112.513 46.82 L 112.513 46.82 L 112.513 46.82 Q 112.115 46.968 111.683 46.968 L 111.683 46.968 L 111.683 46.968 Q 111.212 46.968 110.805 46.815 L 110.805 46.815 L 110.805 46.815 Q 110.397 46.661 110.099 46.388 L 110.099 46.388 L 110.099 46.388 Q 109.802 46.114 109.629 45.755 L 109.629 45.755 L 109.629 45.755 Q 109.456 45.395 109.456 44.972 Z  M 115.387 54.819 L 115.599 57.563 L 115.599 57.563 Q 114.437 58.235 113.027 58.235 L 113.027 58.235 L 113.027 58.235 Q 112.191 58.235 111.539 57.957 L 111.539 57.957 L 111.539 57.957 Q 110.886 57.679 110.44 57.165 L 110.44 57.165 L 110.44 57.165 Q 109.994 56.652 109.764 55.922 L 109.764 55.922 L 109.764 55.922 Q 109.533 55.193 109.533 54.301 L 109.533 54.301 L 109.533 48.235 L 113.698 48.235 L 113.698 54.109 L 113.698 54.109 Q 113.698 54.579 113.948 54.814 L 113.948 54.814 L 113.948 54.814 Q 114.197 55.049 114.581 55.049 L 114.581 55.049 L 114.581 55.049 Q 114.965 55.049 115.387 54.819 L 115.387 54.819 Z  M 118.051 58.082 L 118.051 48.379 L 122.005 48.379 L 122.005 50.385 L 122.005 50.385 Q 122.581 49.224 123.488 48.658 L 123.488 48.658 L 123.488 48.658 Q 124.395 48.091 125.613 48.091 L 125.613 48.091 L 125.613 48.091 Q 126.592 48.091 127.341 48.456 L 127.341 48.456 L 127.341 48.456 Q 128.089 48.821 128.603 49.488 L 128.603 49.488 L 128.603 49.488 Q 129.116 50.155 129.38 51.091 L 129.38 51.091 L 129.38 51.091 Q 129.644 52.026 129.644 53.168 L 129.644 53.168 L 129.644 58.082 L 125.517 58.082 L 125.517 52.765 L 125.517 52.765 Q 125.517 52.381 125.445 52.055 L 125.445 52.055 L 125.445 52.055 Q 125.373 51.729 125.215 51.494 L 125.215 51.494 L 125.215 51.494 Q 125.057 51.258 124.817 51.129 L 124.817 51.129 L 124.817 51.129 Q 124.577 50.999 124.231 50.999 L 124.231 50.999 L 124.231 50.999 Q 123.809 50.999 123.454 51.206 L 123.454 51.206 L 123.454 51.206 Q 123.099 51.412 122.835 51.709 L 122.835 51.709 L 122.835 51.709 Q 122.571 52.007 122.408 52.328 L 122.408 52.328 L 122.408 52.328 Q 122.245 52.65 122.197 52.88 L 122.197 52.88 L 122.197 58.082 L 118.051 58.082 Z  M 138.584 55.481 L 138.584 55.481 L 138.584 55.481 Q 139.927 55.481 141.482 54.79 L 141.482 54.79 L 141.962 57.429 L 141.962 57.429 Q 140.177 58.235 137.951 58.235 L 137.951 58.235 L 137.951 58.235 Q 136.713 58.235 135.69 57.856 L 135.69 57.856 L 135.69 57.856 Q 134.668 57.477 133.934 56.8 L 133.934 56.8 L 133.934 56.8 Q 133.2 56.124 132.792 55.193 L 132.792 55.193 L 132.792 55.193 Q 132.384 54.262 132.384 53.168 L 132.384 53.168 L 132.384 53.168 Q 132.384 52.017 132.811 51.081 L 132.811 51.081 L 132.811 51.081 Q 133.239 50.145 133.978 49.478 L 133.978 49.478 L 133.978 49.478 Q 134.716 48.811 135.705 48.451 L 135.705 48.451 L 135.705 48.451 Q 136.693 48.091 137.816 48.091 L 137.816 48.091 L 137.816 48.091 Q 138.948 48.091 139.803 48.47 L 139.803 48.47 L 139.803 48.47 Q 140.657 48.85 141.228 49.507 L 141.228 49.507 L 141.228 49.507 Q 141.799 50.164 142.082 51.042 L 142.082 51.042 L 142.082 51.042 Q 142.365 51.921 142.365 52.919 L 142.365 52.919 L 142.365 52.919 Q 142.365 53.053 142.356 53.178 L 142.356 53.178 L 142.356 53.178 Q 142.346 53.303 142.327 53.418 L 142.327 53.418 L 136.434 54.186 L 136.434 54.186 Q 136.665 54.876 137.202 55.179 L 137.202 55.179 L 137.202 55.179 Q 137.739 55.481 138.584 55.481 Z  M 136.261 52.381 L 139.313 51.709 L 139.313 51.709 Q 138.978 50.481 137.816 50.481 L 137.816 50.481 L 137.816 50.481 Q 137.452 50.481 137.164 50.625 L 137.164 50.625 L 137.164 50.625 Q 136.876 50.769 136.679 51.023 L 136.679 51.023 L 136.679 51.023 Q 136.482 51.278 136.376 51.628 L 136.376 51.628 L 136.376 51.628 Q 136.271 51.978 136.261 52.381 L 136.261 52.381 Z  M 150.816 55.481 L 150.816 55.481 L 150.816 55.481 Q 152.159 55.481 153.714 54.79 L 153.714 54.79 L 154.194 57.429 L 154.194 57.429 Q 152.409 58.235 150.182 58.235 L 150.182 58.235 L 150.182 58.235 Q 148.944 58.235 147.922 57.856 L 147.922 57.856 L 147.922 57.856 Q 146.9 57.477 146.166 56.8 L 146.166 56.8 L 146.166 56.8 Q 145.432 56.124 145.024 55.193 L 145.024 55.193 L 145.024 55.193 Q 144.616 54.262 144.616 53.168 L 144.616 53.168 L 144.616 53.168 Q 144.616 52.017 145.043 51.081 L 145.043 51.081 L 145.043 51.081 Q 145.47 50.145 146.209 49.478 L 146.209 49.478 L 146.209 49.478 Q 146.948 48.811 147.937 48.451 L 147.937 48.451 L 147.937 48.451 Q 148.925 48.091 150.048 48.091 L 150.048 48.091 L 150.048 48.091 Q 151.18 48.091 152.034 48.47 L 152.034 48.47 L 152.034 48.47 Q 152.889 48.85 153.46 49.507 L 153.46 49.507 L 153.46 49.507 Q 154.031 50.164 154.314 51.042 L 154.314 51.042 L 154.314 51.042 Q 154.597 51.921 154.597 52.919 L 154.597 52.919 L 154.597 52.919 Q 154.597 53.053 154.588 53.178 L 154.588 53.178 L 154.588 53.178 Q 154.578 53.303 154.559 53.418 L 154.559 53.418 L 148.666 54.186 L 148.666 54.186 Q 148.896 54.876 149.434 55.179 L 149.434 55.179 L 149.434 55.179 Q 149.971 55.481 150.816 55.481 Z  M 148.493 52.381 L 151.545 51.709 L 151.545 51.709 Q 151.209 50.481 150.048 50.481 L 150.048 50.481 L 150.048 50.481 Q 149.683 50.481 149.395 50.625 L 149.395 50.625 L 149.395 50.625 Q 149.107 50.769 148.911 51.023 L 148.911 51.023 L 148.911 51.023 Q 148.714 51.278 148.608 51.628 L 148.608 51.628 L 148.608 51.628 Q 148.503 51.978 148.493 52.381 L 148.493 52.381 Z  M 157.328 58.082 L 157.328 48.379 L 161.474 48.379 L 161.474 50.385 L 161.474 50.385 Q 161.944 49.195 162.726 48.643 L 162.726 48.643 L 162.726 48.643 Q 163.508 48.091 164.526 48.091 L 164.526 48.091 L 165.101 51.306 L 165.101 51.306 Q 163.23 51.306 162.352 51.705 L 162.352 51.705 L 162.352 51.705 Q 161.474 52.103 161.474 52.976 L 161.474 52.976 L 161.474 58.082 L 157.328 58.082 Z  M 167.304 44.972 L 167.304 44.972 L 167.304 44.972 Q 167.304 44.54 167.491 44.176 L 167.491 44.176 L 167.491 44.176 Q 167.678 43.811 167.986 43.547 L 167.986 43.547 L 167.986 43.547 Q 168.293 43.283 168.696 43.139 L 168.696 43.139 L 168.696 43.139 Q 169.099 42.995 169.531 42.995 L 169.531 42.995 L 169.531 42.995 Q 170.029 42.995 170.437 43.173 L 170.437 43.173 L 170.437 43.173 Q 170.845 43.35 171.133 43.633 L 171.133 43.633 L 171.133 43.633 Q 171.421 43.917 171.58 44.267 L 171.58 44.267 L 171.58 44.267 Q 171.738 44.617 171.738 44.972 L 171.738 44.972 L 171.738 44.972 Q 171.738 45.414 171.556 45.779 L 171.556 45.779 L 171.556 45.779 Q 171.373 46.143 171.066 46.407 L 171.066 46.407 L 171.066 46.407 Q 170.759 46.671 170.361 46.82 L 170.361 46.82 L 170.361 46.82 Q 169.963 46.968 169.531 46.968 L 169.531 46.968 L 169.531 46.968 Q 169.06 46.968 168.652 46.815 L 168.652 46.815 L 168.652 46.815 Q 168.245 46.661 167.947 46.388 L 167.947 46.388 L 167.947 46.388 Q 167.649 46.114 167.477 45.755 L 167.477 45.755 L 167.477 45.755 Q 167.304 45.395 167.304 44.972 Z  M 173.235 54.819 L 173.446 57.563 L 173.446 57.563 Q 172.285 58.235 170.874 58.235 L 170.874 58.235 L 170.874 58.235 Q 170.039 58.235 169.387 57.957 L 169.387 57.957 L 169.387 57.957 Q 168.734 57.679 168.288 57.165 L 168.288 57.165 L 168.288 57.165 Q 167.841 56.652 167.611 55.922 L 167.611 55.922 L 167.611 55.922 Q 167.381 55.193 167.381 54.301 L 167.381 54.301 L 167.381 48.235 L 171.546 48.235 L 171.546 54.109 L 171.546 54.109 Q 171.546 54.579 171.796 54.814 L 171.796 54.814 L 171.796 54.814 Q 172.045 55.049 172.429 55.049 L 172.429 55.049 L 172.429 55.049 Q 172.813 55.049 173.235 54.819 L 173.235 54.819 Z  M 175.899 58.082 L 175.899 48.379 L 179.853 48.379 L 179.853 50.385 L 179.853 50.385 Q 180.428 49.224 181.335 48.658 L 181.335 48.658 L 181.335 48.658 Q 182.242 48.091 183.461 48.091 L 183.461 48.091 L 183.461 48.091 Q 184.44 48.091 185.188 48.456 L 185.188 48.456 L 185.188 48.456 Q 185.937 48.821 186.45 49.488 L 186.45 49.488 L 186.45 49.488 Q 186.964 50.155 187.228 51.091 L 187.228 51.091 L 187.228 51.091 Q 187.492 52.026 187.492 53.168 L 187.492 53.168 L 187.492 58.082 L 183.365 58.082 L 183.365 52.765 L 183.365 52.765 Q 183.365 52.381 183.293 52.055 L 183.293 52.055 L 183.293 52.055 Q 183.221 51.729 183.063 51.494 L 183.063 51.494 L 183.063 51.494 Q 182.905 51.258 182.665 51.129 L 182.665 51.129 L 182.665 51.129 Q 182.425 50.999 182.079 50.999 L 182.079 50.999 L 182.079 50.999 Q 181.657 50.999 181.302 51.206 L 181.302 51.206 L 181.302 51.206 Q 180.947 51.412 180.683 51.709 L 180.683 51.709 L 180.683 51.709 Q 180.419 52.007 180.256 52.328 L 180.256 52.328 L 180.256 52.328 Q 180.093 52.65 180.044 52.88 L 180.044 52.88 L 180.044 58.082 L 175.899 58.082 Z  M 198.533 56.451 L 198.533 56.451 L 198.533 56.451 Q 197.392 58.082 195.002 58.082 L 195.002 58.082 L 195.002 58.082 Q 194.052 58.082 193.188 57.708 L 193.188 57.708 L 193.188 57.708 Q 192.324 57.333 191.672 56.667 L 191.672 56.667 L 191.672 56.667 Q 191.019 55.999 190.635 55.088 L 190.635 55.088 L 190.635 55.088 Q 190.251 54.176 190.251 53.101 L 190.251 53.101 L 190.251 53.101 Q 190.251 51.978 190.649 51.057 L 190.649 51.057 L 190.649 51.057 Q 191.048 50.136 191.705 49.473 L 191.705 49.473 L 191.705 49.473 Q 192.363 48.811 193.217 48.451 L 193.217 48.451 L 193.217 48.451 Q 194.071 48.091 194.983 48.091 L 194.983 48.091 L 194.983 48.091 Q 195.587 48.091 196.12 48.254 L 196.12 48.254 L 196.12 48.254 Q 196.653 48.418 197.075 48.72 L 197.075 48.72 L 197.075 48.72 Q 197.497 49.022 197.799 49.445 L 197.799 49.445 L 197.799 49.445 Q 198.102 49.867 198.246 50.385 L 198.246 50.385 L 198.246 48.091 L 202.391 48.091 L 202.391 55.587 L 202.391 55.587 Q 202.391 57.199 202.032 58.5 L 202.032 58.5 L 202.032 58.5 Q 201.672 59.8 200.923 60.707 L 200.923 60.707 L 200.923 60.707 Q 200.174 61.613 199.023 62.103 L 199.023 62.103 L 199.023 62.103 Q 197.871 62.592 196.288 62.592 L 196.288 62.592 L 196.288 62.592 Q 195.827 62.592 195.309 62.544 L 195.309 62.544 L 195.309 62.544 Q 194.791 62.497 194.215 62.401 L 194.215 62.401 L 194.522 59.464 L 194.522 59.464 Q 195.482 59.579 195.866 59.579 L 195.866 59.579 L 195.866 59.579 Q 196.605 59.579 197.075 59.339 L 197.075 59.339 L 197.075 59.339 Q 197.545 59.099 197.833 58.682 L 197.833 58.682 L 197.833 58.682 Q 198.121 58.264 198.274 57.693 L 198.274 57.693 L 198.274 57.693 Q 198.428 57.122 198.533 56.451 Z  M 198.246 53.245 L 198.246 53.091 L 198.246 53.091 Q 198.226 52.708 198.058 52.367 L 198.058 52.367 L 198.058 52.367 Q 197.891 52.026 197.622 51.767 L 197.622 51.767 L 197.622 51.767 Q 197.353 51.508 197.008 51.359 L 197.008 51.359 L 197.008 51.359 Q 196.662 51.21 196.288 51.21 L 196.288 51.21 L 196.288 51.21 Q 195.866 51.21 195.506 51.369 L 195.506 51.369 L 195.506 51.369 Q 195.146 51.527 194.887 51.796 L 194.887 51.796 L 194.887 51.796 Q 194.628 52.064 194.479 52.419 L 194.479 52.419 L 194.479 52.419 Q 194.33 52.775 194.33 53.168 L 194.33 53.168 L 194.33 53.168 Q 194.33 53.638 194.507 54.003 L 194.507 54.003 L 194.507 54.003 Q 194.685 54.368 194.968 54.617 L 194.968 54.617 L 194.968 54.617 Q 195.251 54.867 195.601 54.997 L 195.601 54.997 L 195.601 54.997 Q 195.952 55.126 196.288 55.126 L 196.288 55.126 L 196.288 55.126 Q 196.681 55.126 197.032 54.973 L 197.032 54.973 L 197.032 54.973 Q 197.382 54.819 197.646 54.56 L 197.646 54.56 L 197.646 54.56 Q 197.91 54.301 198.068 53.96 L 198.068 53.96 L 198.068 53.96 Q 198.226 53.619 198.246 53.245 L 198.246 53.245 Z " fill-rule="evenodd" fill="rgb(255,255,255)" fill-opacity="0.8"/></g></svg>