<?xml version="1.0" encoding="UTF-8" standalone="no"?><svg width="260px" height="136px" viewBox="0 0 260 136" version="1.1" xmlns="http://www.w3.org/2000/svg" xmlns:xlink="http://www.w3.org/1999/xlink"><title></title><g><g><g><path fill="#b8cf52" d="M45,107.1l0.8,5.8c0.1,0.8,0.2,1.6,0.4,2.1h-2.4c0-0.3-0.1-0.8-0.1-1.5l-0.3-2.5l-1.8,4.1h-0.6L39,111l-0.3,2.3c-0.1,0.7-0.2,1.3-0.2,1.6h-2.1c0.1-0.4,0.3-1.3,0.4-2.1l0.9-5.8h1.4l2.3,4.9l2.2-4.9H45z"/><path fill="#b8cf52" d="M50.3,109.6v-2c0.6-0.1,1.2-0.5,2.6-0.5c2.3,0,3.3,1.3,3.3,3.5v2.1c0,0.6,0.2,0.7,0.4,0.7c0.2,0,0.3,0,0.4-0.1v1.4c-0.4,0.3-0.7,0.5-1.5,0.5c-0.7,0-1.2-0.4-1.4-0.9c-0.4,0.5-1.1,0.9-1.8,0.9c-1.6,0-2.6-0.9-2.6-2.3c0-1.4,1-2.5,2.8-2.5c0.7,0,1.3,0.3,1.6,0.5v-0.5c0-0.9-0.6-1.6-1.7-1.6C51.3,108.8,50.8,109.2,50.3,109.6z M53,113.6c0.6,0,1-0.4,1-0.9c0-0.5-0.5-0.9-1-0.9c-0.7,0-1,0.4-1,0.9C51.9,113.2,52.3,113.6,53,113.6z"/><path fill="#b8cf52" d="M61,112.1v-2c0-0.5,0-1.1,0-1.6h-0.8c0.2-0.4,0.4-0.9,0.5-1.3h3.5c1.1,0,1.7,0,2.2-0.1v2.1c-0.5-0.1-1.1-0.1-2.2-0.1h-0.9v3c0,1.1,0,2.4,0.1,2.9h-2.4C60.9,114.5,61,113.2,61,112.1z"/><path fill="#b8cf52" d="M70.1,109.6v-2c0.6-0.1,1.2-0.5,2.6-0.5c2.3,0,3.3,1.3,3.3,3.5v2.1c0,0.6,0.2,0.7,0.4,0.7c0.2,0,0.3,0,0.4-0.1v1.4c-0.4,0.3-0.7,0.5-1.5,0.5c-0.7,0-1.2-0.4-1.4-0.9c-0.4,0.5-1.1,0.9-1.8,0.9c-1.6,0-2.6-0.9-2.6-2.3c0-1.4,1-2.5,2.8-2.5c0.7,0,1.3,0.3,1.6,0.5v-0.5c0-0.9-0.6-1.6-1.7-1.6C71.2,108.8,70.6,109.2,70.1,109.6z M72.8,113.6c0.6,0,1-0.4,1-0.9c0-0.5-0.5-0.9-1-0.9c-0.7,0-1,0.4-1,0.9C71.8,113.2,72.2,113.6,72.8,113.6z"/><path fill="#b8cf52" d="M81.9,111.9v-1.7c0.2,0,0.7,0.1,1.1,0.1c0.8,0,1.3-0.3,1.3-0.8c0-0.4-0.4-0.8-1.2-0.8c-0.9,0-1.9,0.4-2.2,0.8v-1.8c0.5-0.1,1.1-0.6,2.5-0.6c1.9,0,3.1,0.9,3.1,2.3c0,0.8-0.7,1.5-1.3,1.7c0.7,0.2,1.5,0.8,1.5,1.7c0,1.6-1.4,2.4-3,2.4c-1.8,0-2.5-0.6-3-0.7v-1.8h0c0.6,0.5,1.4,0.8,2.5,0.8c0.9,0,1.3-0.4,1.3-0.9c0-0.5-0.4-0.8-1.1-0.8C82.7,111.8,82.1,111.8,81.9,111.9z"/><path fill="#b8cf52" d="M95.8,111l-2.7,2.7c-0.4,0.5-0.8,0.9-1.4,1.5h-1c0.1-0.7,0.1-1.3,0.1-1.7v-4.2c0-0.2,0-0.5,0-0.7h-0.8c0.2-0.4,0.4-0.9,0.5-1.3h2.5c0,0.5-0.1,1.4-0.1,2v2.3l3-3.1c0.5-0.6,0.9-0.9,1.2-1.4h0.7c0,0.6-0.1,1.6-0.1,2.3v4c0,0.6,0,1.3,0.1,1.6h-2.2c0-0.3,0-1,0-1.6V111z"/><path fill="#b8cf52" d="M104.8,110.1h2.9v-0.9c0-0.6,0-1.5-0.1-2h2.3c0,0.5,0,1.4,0,2v4.2c0,0.6,0,1.3,0,1.6h-2.3c0-0.3,0.1-1,0.1-1.6v-1.6h-2.9v1.7c0,0.6,0,1.3,0,1.6h-2.3c0-0.3,0.1-1,0.1-1.6v-4.2v-0.7h-0.8c0.2-0.4,0.4-0.9,0.5-1.3h2.5c0,0.3,0,1.2,0,2V110.1z"/><path fill="#b8cf52" d="M114.6,115c0-0.3,0.1-1.1,0.1-1.9v-4c0-0.7,0-1.3,0-1.9h2.3c-0.1,0.6-0.1,1.3-0.1,1.9v0.3h1c1.8,0,3,1.2,3,2.8c0,1.6-1.2,2.8-3.3,2.8H114.6z M117.3,111h-0.5v2.5h0.5c0.9,0,1.3-0.6,1.3-1.2C118.7,111.6,118.2,111,117.3,111z M124.1,113.3c0,0.6,0,1.4,0.1,1.7h-2.3c0-0.4,0-1.1,0-1.7v-4.4c0-0.6,0-1.3-0.1-1.7h2.3c0,0.4-0.1,1.1-0.1,1.7V113.3z"/><path fill="#b8cf52" d="M142.1,107.2c0,0.3-0.1,1.6-0.1,2.1v3.7c0,0.8,0,1.7,0.1,2h-2.4c0-0.4,0-1.3,0-2.1v-3.8h-2.6v3.8c0,0.8,0,1.7,0.1,2.1h-2.4c0-0.3,0.1-1.3,0.1-2.1v-3.6v-0.8H134c0.2-0.4,0.4-0.9,0.5-1.3H142.1z"/><path fill="#b8cf52" d="M150.3,107c2.3,0,4.1,1.8,4.1,4c0,2.2-1.9,4-4.1,4c-2.3,0-4.1-1.8-4.1-4C146.2,108.9,148,107,150.3,107zM150.3,113.1c1.1,0,1.9-0.9,1.9-2c0-1.1-0.9-2-1.9-2c-1.1,0-1.9,0.9-1.9,2C148.4,112.2,149.2,113.1,150.3,113.1z"/><path fill="#b8cf52" d="M161.6,110.3l-1.3,3.3c-0.2,0.6-0.4,1-0.5,1.4h-2.4c0.3-0.5,0.6-1.1,0.8-1.7l2.3-5.1c0.2-0.4,0.2-0.6,0-1h1.9l2.8,6.1c0.3,0.6,0.6,1.3,0.9,1.7h-2.7c-0.1-0.4-0.2-0.9-0.5-1.4L161.6,110.3z"/><path fill="#b8cf52" d="M171.4,111.5c0.2,1,1,1.8,2.2,1.8c0.9,0,1.5-0.1,2.1-0.5v1.9c-0.6,0-1.2,0.4-2.5,0.4c-2.4,0-4.2-1.7-4.2-4c0-2.3,1.6-4.1,3.8-4.1c2.3,0,3.7,2,3.7,3.9c0,0.2,0,0.5-0.1,0.6H171.4z M171.4,110h2.8c-0.1-0.6-0.5-1.2-1.3-1.2C172.1,108.7,171.6,109.2,171.4,110z"/><path fill="#b8cf52" d="M181.7,111.9v-1.7c0.2,0,0.7,0.1,1.1,0.1c0.8,0,1.3-0.3,1.3-0.8c0-0.4-0.4-0.8-1.2-0.8c-0.9,0-1.9,0.4-2.2,0.8v-1.8c0.5-0.1,1.1-0.6,2.5-0.6c1.9,0,3.1,0.9,3.1,2.3c0,0.8-0.7,1.5-1.3,1.7c0.7,0.2,1.5,0.8,1.5,1.7c0,1.6-1.4,2.4-3,2.4c-1.8,0-2.5-0.6-3-0.7v-1.8h0c0.6,0.5,1.4,0.8,2.5,0.8c0.9,0,1.3-0.4,1.3-0.9c0-0.5-0.4-0.8-1.1-0.8C182.5,111.8,181.9,111.8,181.7,111.9z"/><path fill="#b8cf52" d="M192.8,110.1h2.9v-0.9c0-0.6,0-1.5-0.1-2h2.3c0,0.5,0,1.4,0,2v4.2c0,0.6,0,1.3,0,1.6h-2.3c0-0.3,0.1-1,0.1-1.6v-1.6h-2.9v1.7c0,0.6,0,1.3,0,1.6h-2.3c0-0.3,0.1-1,0.1-1.6v-4.2v-0.7h-0.8c0.2-0.4,0.4-0.9,0.5-1.3h2.5c0,0.3,0,1.2,0,2V110.1z"/><path fill="#b8cf52" d="M202.5,115c0-0.3,0.1-1.1,0.1-1.9v-4c0-0.7,0-1.3,0-1.9h2.3c-0.1,0.6-0.1,1.3-0.1,1.9v0.3h1c1.8,0,3,1.2,3,2.8c0,1.6-1.2,2.8-3.3,2.8H202.5z M205.3,111h-0.5v2.5h0.5c0.9,0,1.3-0.6,1.3-1.2C206.6,111.6,206.2,111,205.3,111z M212.1,113.3c0,0.6,0,1.4,0.1,1.7h-2.3c0-0.4,0-1.1,0-1.7v-4.4c0-0.6,0-1.3,0-1.7h2.3c0,0.4-0.1,1.1-0.1,1.7V113.3z"/><path fill="#b8cf52" d="M219.6,112.7l-0.5,0.8c-0.4,0.6-0.6,1.2-0.7,1.5h-2.7c0.4-0.5,0.9-1.3,1.3-1.9l1.3-2l-1.4-2.3c-0.3-0.6-0.7-1.1-1.1-1.6h2.8c0.1,0.3,0.3,0.8,0.6,1.3l0.5,0.9l0.6-1c0.3-0.5,0.5-1,0.7-1.3h2.6c-0.4,0.5-0.8,1-1.1,1.6L221,111l1.3,2.1c0.4,0.6,0.9,1.4,1.4,1.9h-2.8l-0.6-1.3L219.6,112.7z"/><path fill="#b8cf52" d="M87,124c0,0.3-0.1,1.6-0.1,2.1v3.7c0,0.8,0,1.7,0.1,2h-2.4c0-0.4,0-1.3,0-2.1v-3.8H82v3.8c0,0.8,0,1.7,0.1,2.1h-2.4c0-0.3,0.1-1.3,0.1-2.1v-3.6v-0.8h-0.8c0.2-0.4,0.4-0.9,0.5-1.3H87z"/><path fill="#b8cf52" d="M91.7,125.3h-0.8c0.2-0.4,0.4-0.9,0.6-1.3H94v1.1c0.6-0.8,1.4-1.3,2.5-1.3c2.1,0,3.7,1.8,3.7,3.9c0,2.3-1.6,4.1-3.8,4.1c-0.9,0-1.8-0.3-2.4-1v3.3c0,0.5,0,1.2,0.1,1.7h-2.4c0-0.5,0.1-1.2,0.1-1.7V125.3z M95.9,130c1.1,0,2-0.9,2-2.1c0-1.2-0.9-2.1-2-2.1s-2,0.9-2,2.1C93.9,129,94.8,130,95.9,130z"/><path fill="#b8cf52" d="M108.2,123.8c2.3,0,4.1,1.8,4.1,4c0,2.2-1.9,4-4.1,4c-2.3,0-4.1-1.8-4.1-4C104,125.7,105.9,123.8,108.2,123.8z M108.2,129.9c1.1,0,1.9-0.9,1.9-2c0-1.1-0.9-2-1.9-2c-1.1,0-1.9,0.9-1.9,2C106.2,129,107.1,129.9,108.2,129.9z"/><path fill="#b8cf52" d="M124.4,134.6h-1.8l0.1-2.8h-5.2l0.1,2.8h-1.8l-0.4-4.7c0.2,0,0.8,0,1.3,0l2.2-4.9c0.1-0.3,0.2-0.7,0-1h1.9l2.6,5.9c0.6,0,1.1,0,1.3,0L124.4,134.6z M119.9,126.8l-1.3,3.1h2.5L119.9,126.8z"/><path fill="#b8cf52" d="M128.4,136c-0.2,0-0.5,0-0.7-0.1c0.4-0.4,0.8-0.9,1.1-1.5c0.7-1.1,1.5-2.2,2.1-3.4l-2.6-5.3c-0.3-0.6-0.6-1.1-0.9-1.7h2.7c0.1,0.4,0.2,0.7,0.4,1.2l1.5,3.3c0.4-1,0.8-1.8,1.2-3.2c0.2-0.4,0.3-0.9,0.4-1.3h2.6c-0.3,0.5-0.7,1.4-0.8,1.8c-0.6,1.4-1.6,3.8-2.4,5.2c-0.6,1.2-1.4,2.4-2,3.5C130.4,135.6,129.6,136,128.4,136z"/><path fill="#b8cf52" d="M140,126.1v-0.7h-0.8c0.2-0.4,0.4-0.9,0.5-1.3h2.7c0,0.3,0,1.2,0,2.1v1h0.3l1.5-2c0.3-0.4,0.5-0.7,0.7-1h2.5c-0.3,0.3-0.8,0.8-1.2,1.4l-1.7,2.2l2.1,2.8c0.4,0.6,0.8,1,1.2,1.4H145c-0.1-0.3-0.4-0.6-0.7-1l-1.7-2.3h-0.3v1.3c0,0.8,0,1.7,0,2.1H140c0-0.4,0.1-1.3,0.1-2.1V126.1z"/><path fill="#b8cf52" d="M155.9,124c0.8,0,1.7,0,2,0v2c-0.4,0-1.2,0-2,0h-0.5v3.8c0,0.8,0,1.7,0.1,2.1h-2.4c0-0.3,0.1-1.3,0.1-2.1v-3.8h-0.5c-0.8,0-1.7,0-2,0v-2c0.3,0,1.2,0,2,0H155.9z"/><path fill="#b8cf52" d="M165.3,123.8c2.3,0,4.1,1.8,4.1,4c0,2.2-1.9,4-4.1,4c-2.3,0-4.1-1.8-4.1-4C161.2,125.7,163,123.8,165.3,123.8z M165.3,129.9c1.1,0,1.9-0.9,1.9-2c0-1.1-0.9-2-1.9-2c-1.1,0-1.9,0.9-1.9,2C163.4,129,164.2,129.9,165.3,129.9z"/><path fill="#b8cf52" d="M173.7,131.8c0-0.3,0.1-1.2,0.1-2v-3.4c0-0.3,0-0.7,0-1.1h-0.8c0.2-0.4,0.4-0.9,0.5-1.3h3.6c2.1,0,3,0.7,3,2c0,0.8-0.6,1.4-1.2,1.6c0.8,0.2,1.5,0.8,1.5,1.8c0,1.4-1,2.4-3.2,2.4H173.7z M175.9,127.1h1c0.4,0,0.9-0.2,0.9-0.8c0-0.5-0.4-0.7-1-0.7h-1V127.1z M177.1,128.5h-1.2v1.7h1.1c0.7,0,1.1-0.3,1.1-0.8C178.1,128.8,177.7,128.5,177.1,128.5z"/></g></g><g><g><path fill="#b8cf52" d="M128.2,36.5c-1.5,0.2-3.1,0.1-4.2,0.1c-1.4-0.1-4-1-4.1,0.3c-0.1,0.7,0.9,1.5,1.4,1.9c0.6,0.6,3.1,1.2,2.2,2.4c-0.9,0.8-2.2-1.4-2.8-1.9c-1-0.8-1.8-1.3-2.7-2.3c-1.1-1.2-4.8-2.9-3-3.9c1.9-0.9,2.3,1.4,7.4,1.2c3.6-0.1,7.2-0.4,9.9-1.2c1.4-0.4,2.5-1,3.4-1.5c0.6-0.3,2.4-1.1,2.7-1.4c0.4-0.2,1.7-1.1,2.1-1.3c0.3-0.2,0.8-0.4,1.1-0.6c0.9-0.7,1.7-1.6,2.6-2.4c0.9-0.9,1.7-1.8,2.4-2.7c0.6-0.8,1.2-1.6,1.6-2.4c0.6-1.2,0.9-2.9,2-3.7c0.7-0.5,3-1.4,3.3-1.7c1.1-0.8,1.8-1.1,2.6-2.1c0.5-0.7,1.3-1.6,1.5-2.3c0.5-1.8-0.7-4-1.3-4.9c-0.6-1-3.8-3.1-4-3.3c-2-1-6.1-1-8.3,0c-0.4,0.2-1.9,1.1-2.2,1.4c-0.5,0.4-0.5,2-1.6,1.3c-1.2-1,0.9-1.5,1.4-2c0.5-0.6,2-1.7,2.3-1.9c0.5-0.3,3.6-1.1,4.6-1.2c1.5-0.1,2.9,0,4,0.4c1.4,0.5,2.5,1,3.3,1.6c0.3,0.2,2.5,2.7,3.4,3.3c1.4,1,4.2,0.7,5.4,1.7c0.1,0.5-0.6,0.9-0.4,1.5c0.1,0.4,0.5,0.4,0.9,0.9c0.4,0.4,1.2,1.4,1.5,1.8c0.2,0.3,1.2,1.9,1.5,2.5c0.2,0.3,1.1,2.2,1.3,2.7c0.4,1,0.5,2.3,0.8,3.5c0.6,2.4,0.8,5,0.6,7.9c-0.1,1,0.9,3.7-1,2.9c-1.6-0.3-0.3-2.3-0.3-3.5c0-3.9,0-7.6-1.4-10.8c-0.7-0.8-1-2.8-1.8-2.8c-0.5,0.7-0.4,3-0.4,3.8c0.1,1.8-0.1,4-0.6,5.5c-0.2,0.7-0.7,1.3-0.9,2c-0.2,0.7-1.4,3-1.5,3.7c-0.1,0.4-0.8,2.1-1.1,2.6c-0.4,0.5-0.5,2.2-1.2,1.3c-0.3-1.6-1-2.1-2.4-1.5c-1.9,0.8-3.7,2.8-4.2,4.9c-0.8,3.1,1.5,6.1,3.3,7c0.9,0.4,2.3,0.3,2.4,1.4c-1,0.5-2.5,0.3-3.7-0.3c-0.5-0.2-1.4-0.9-2-1.5c-1.3-1.2-1.9-2.7-2.1-4.7c-0.3-2.5,0.8-4.3,1.7-5.5c0.7-0.9,3-2.5,3.9-2.7c1.1-0.2,2.3,0.3,3.4-0.2c0.7-0.3,0.7-1.5,1.2-2.6c0.2-0.6,0.6-1,0.8-1.4c0.2-0.6,1.3-3.9,1.5-5.1c0.6-3.5,1.2-8.2-0.6-10.6c-1.8-0.1-2.8,0.7-3.4,1.9c-0.3,0.5-0.3,1.3-0.6,1.7c-1.6,2.2-4.1,4.6-4.4,4.7c-1.2,0.8-2.5,1.1-3.2,2.1c-0.3,0.4-0.3,0.9-0.5,1.4c-0.2,0.3-1.5,2.4-2.1,3.1c-0.3,0.4-0.4,0.8-0.7,1.1c-0.6,0.8-1.6,1.5-2.2,2.1c-0.3,0.3-1.3,1.2-1.5,1.4c-0.3,0.2-1.5,1.2-1.9,1.5c-0.8,0.6-1,0.8-2.1,1.2c-1.4,1.5-4.2,0.5-3.4,3.2c0.2,0.6,1.6,1.8,0.4,2.1c-0.6,0.1-1.1-0.9-1.4-1.2c-0.3-0.2-1.3-0.9-1.8-1c-1-0.2-1.8,0.4-2.6,0.6C131.1,36.3,129.5,36.3,128.2,36.5z"/><path fill="#b8cf52" d="M161.8,36c-0.1,0.2-1.7,3.1-1.2,5.1c0.1,0.5,0.3,2.6,1,3.2c0.4,0.4,1.5,1.1,1.9,1.3c0.4,0.2,1,0.4,1.5,0.6c0.9,0.4,2.3,0.8,3.7,0.4c0.5-0.1,2.4-0.8,2.6-0.9c0.4-0.2,1.8-1.7,2.1-2.7c0.4-1.1,1.3-2.3,0.9-4.1c-0.1-0.4-1.3-2.9-2.1-3.7c-0.3-0.3-0.5-0.7-0.8-0.9c-0.5-0.3-1.1-0.3-1.5-0.9c-0.3-0.3-1.5-0.5-2.2-0.3c-0.9,0.3-1.8,0.1-2.5,0.3c-0.5,0.2-1.1,0.6-1.6,0.9C163.1,34.7,162.1,35.4,161.8,36z M171.6,40.2c0,0,0.1-0.5,0.7-0.5c0.6,0,0.2,0.7,0.3,0.8c0,0-0.1,0.5-0.3,0.8c-0.2,0.2-0.8,0.4-1,0.1C171.1,41.2,171.6,40.6,171.6,40.2z M169.7,36.1c0.1-0.9,2,0.4,2.2,0.8c0.2,0.4,0.4,0.7,0,1c-0.4,0.2-0.5,0.2-0.5,0.2c-0.1-0.2-1.2-0.1-1.4-0.3C169.6,37.4,169.6,36.7,169.7,36.1z"/><path fill="#b8cf52" d="M136.3,4.8c0-1.4,1.4-0.9,1.3-0.3C137.9,5.4,136.3,5.5,136.3,4.8z"/><path fill="#b8cf52" d="M159.7,33.6c1.1,0.3,0.1,2-0.5,1.3C158.3,34.5,159,33.2,159.7,33.6z"/><path fill="#b8cf52" d="M115.9,50.3c1.3-1.3,2.8-2.6,4.2-3.8c0.6-0.5,1-1,1.5-1.4c0.3-0.2,0.7-0.3,1-0.5c0.2-0.2,1.4-2,2.1-2.6c1.7-0.4,2.9-1.5,4.5-2.5c0.5-0.3,1-0.3,1.4-0.5c0.4-0.2,1-1,1.4-0.5c-1,0.2-0.8,1-1.3,1.7c-0.3,0.4-0.7,0.4-1.1,0.7c-0.7,0.6-1.1,1.3-1.6,1.9c-1.8,1.2-3.4,2.7-5,3.9c-0.6,0.4-1.1,1-1.6,1.4c-0.3,0.2-1.3,1-1.6,1.2c-0.4,0.3-0.9,0.5-1.4,0.8c-0.4,0.3-1.7,1.1-2,1.3c-0.4,0.3-0.7,0.8-1.1,1c-0.3,0.2-1.1,1.5-2,0.9C111.3,52.1,114.8,51.4,115.9,50.3z"/><path fill="#b8cf52" d="M153,8.6c0.8,0.2,1.8,1.1,1.2,2c-0.2,0.2-0.6,0.3-1-0.1c-0.7-0.6-1.5,0.9-2.1,0.2c0-0.2-0.1-0.3-0.1-0.5C151.1,9.1,151.9,8.4,153,8.6z"/><path fill="#b8cf52" d="M82.7,25c0.4-0.6,0.6-1.5,1.1-1.9c0.3-0.3,1.2-0.6,1.9-0.8c0.9-0.2,2.2-0.4,3.3-0.5c1.2-0.2,2.3-0.5,3.2-0.7c1.1-0.3,2.3-0.4,2.2-1.5c0-0.9-0.9-1-1.3-1.5c-0.2-0.3-0.3-0.7-0.5-1c-0.6-0.8-1.5-2.4-1.2-3.7c0.2-0.6,1.6-2.3,2.2-2.4c1.3-0.2,2.8,0.9,4,1.2c1,0.3,1.9,0.4,2.8,0.6c2.6,0.6,5.2,1,8.3,1.2c3.6,0.2,7,0.8,9.4-0.9c-1.4-0.7-3.4-0.7-5.6-0.9c-1.4-0.2-4.8-0.4-4.9-1.6c0-1,2.1-1.7,2.7-2.1c0.4-0.3,0.7-0.7,1-0.9c0.6-0.3,1.2-0.3,1.9-0.6c0.6-0.2,1.1-0.6,1.7-0.9c0.9-0.3,2.3-0.4,3.7-0.8c2.5-0.6,5.2-0.8,8.2-0.6c0.7,0.1,2.4,0.2,2.8,0.5c0.9,0.7,0,1.6,0.3,2.7c0.3,1,2.6,1.4,4.2,2.1c0.5,0.2,0.7,0.5,1.1,0.8c1,0.7,1.7,1,2.7,2c1.1,1.1,1.5,1.9,2,3.3c0.2,0.5,0.4,1,0.5,1.5c0.3,2.4-1,4.4-2,5.6c-1,1.1-1.9,1.1-3.6,1.5c-1,0.2-1.8,0.4-2.7,0.5c-4.7,0.6-8.9,0.1-13.1,0.2c0.6,0.3,1,1,1.6,1.4c1.1,0.6,3.2,0.6,4.9,0.8c1.8,0.1,3.7,0.3,5.1,0.3c-2.6,2.2-8,2.2-12.7,2c-1.7-0.1-3.3-0.1-4.9-0.3c-1.7-0.2-2.9-0.8-4.2-1.1c-0.7-0.2-1.4-0.1-2-0.3c-0.7-0.2-1.3-0.7-1.9-0.9c-0.6-0.2-1.1-0.3-1.6-0.5c-0.5-0.2-0.8-0.6-1.3-0.9c-0.3-0.2-0.7-0.2-1-0.3c-1.1-0.6-2.4-2.2-3.8-2.1c-0.7,0-1.3,0.6-1.9,0.8c-1.2,0.4-2.5,0.3-3.8,0.9c-1.3,0.5-2.5,0.6-3.8,0.9C86,26,84.2,27.4,82,27.1C81.6,26.1,82.4,25.5,82.7,25z"/><path fill="#b8cf52" d="M128.9,43.4c0.2,0.3,0.5,0.3,0.9,0.5c0.2-0.1,0.4-0.3,0.6-0.3c0.9-0.1,2.1,0.7,2.1,1.5c0,0.7-0.8,0.9-1.2,1.5c-0.3,0.5-0.1,0.8-0.6,1.1c-0.7-0.1-1.3-0.5-1.6-1c-0.3-0.1-0.5-0.2-0.8-0.2c-0.5,0-0.8,0.3-1.3,0C126.3,45.1,127.3,43.6,128.9,43.4z"/></g><path fill="#b8cf52" d="M56.2,70.6C55,70.9,56,72.7,56.7,72C57.7,71.6,56.9,70.2,56.2,70.6z M53.2,73.5c-0.4-0.3-2.1-1.3-2.4-1.5c-0.6-0.3-3.3-1.4-4.1-1.5c-1.6-0.4-8.1-0.2-9-0.1c-1.5,0.2-4.6,1.4-5.1,1.6c-0.3,0.1-2.1,1.2-2.5,1.5c-0.3,0.2-1.7,1.5-1.9,1.7c-0.3,0.4-1.5,2.2-1.6,2.6c-0.5,1.5-0.4,3.9,0,5.2c0.2,0.7,1.4,2.4,1.6,2.7c0.3,0.4,1.1,1,1.7,1.5c0.8,0.6,1.8,1.3,2.5,1.6c0.5,0.2,2.5,1.1,3.1,1.3c1.8,0.7,5.6,0.3,5.7,0.3c0.3,0,3.3,0.2,4.2,0.1c1.9-0.1,5.1-1.5,5.5-1.7c0.4-0.2,2.2-1.3,2.6-1.6c0.3-0.2,1.5-1.3,1.7-1.5c0.3-0.3,1.5-2.4,1.6-2.7c0.7-2.2,0-4.8-0.8-6.1C55.3,75.5,54.4,74.4,53.2,73.5z M49.5,85.2c-0.3,1.1-0.2,1.7-1.1,2.2c-0.8,0.5-1,0.8-2,1c-0.6,0.1-1.8,0.4-2.4,0.4c-2.8,0.3-4-0.3-5.5-0.4c-2-0.1-2.8-1-3.6-3.4c-0.5-1.6-0.2-2.6-0.4-4.3c-0.2-1.3-0.2-3.1,0-4.4c0.1-0.7,0-1.4,0.5-2.4c0.3-0.7,0.7-1.2,1.4-1.5c1.8-0.6,2.4-0.7,4.3-0.6l1.3,0c0.8,0,1.8,0.1,2.6,0.1c1.2,0.1,2.1,0.3,3.3,0.8c1,0.4,0.7,1.1,1.2,2.1c0.5,1.1,0.5,2.5,0.5,3.7C49.4,80.7,50,83,49.5,85.2zM260,93c-0.3-1.4-1-3.8-1.6-4.1c-0.7-0.3-2.3-0.1-3.1-0.3c-0.6-0.2-0.3-0.2-0.8-1c-0.3-0.4-1-2.2-1.3-2.7c-0.2-0.3-1.3-2.3-1.5-2.9c-0.3-0.7-0.9-2.5-1-2.8c-0.3-0.7-1.7-3.2-1.9-3.7c-0.1-0.2-1-1.9-1.3-3.4c-0.3-1.1-1.5-1.5-1.8-1.5c-3.5,0.1-7.3,0.3-10.5,0.2c-0.3,0-1.2,0-1.2,0.7c-0.1,1.9,1.9,0.8,2.7,0.9c0.7,0,1.8-0.1,2,0.2c0.1,0.3-0.5,1.9-0.9,2.5c-0.4,0.6-1.1,1.6-1.4,2.7c-0.3,1-2,4.6-2.2,5.4c-0.2,0.8-1.1,2.9-1.1,3.1l-0.7,2.2c-0.4,0.5-1.5,0.2-2.1,0.3c-0.4,0.1-1.3-0.2-1.7,0c-0.8,0.2-1.1,1.4-1.3,2.1c-0.3,0.8-0.6,1.3-0.5,2.3c0,0.3,0.6,0.6,0.9,0.6c0.4,0,1.8,0,1.7-0.4c0-0.4-0.1-1,0-1.6c0.6-2,0.4-1.4,1.5-1.4c0.8,0.1,3.2-0.1,4.3,0c3.9,0.1,7.1-0.2,11.5-0.3c2.2,0,5.2-0.1,7.4,0c1.7,0.1,2.6-0.4,2.7,0.4c0.2,0.4,0.9,2.3,0.9,2.7c0,0.3,0.9,0.6,1.6,0.6C260.1,93.7,260,93.3,260,93z M244.9,88.2c-0.5,0-1,0.1-1.3,0.1c-1.2,0-2.4,0.1-3.6,0.1c-0.9,0-5.3,0.2-5.6,0c-0.7-0.8,0.4-2,0.8-2.6c0.5-1,0.7-2,1.1-3.1c0.4-1.2,0.8-2.2,1.2-3.4c0.5-1.4,1.1-2.8,1.7-4.1c0.2-0.6,0.5-1.3,0.7-1.9c0.1-0.5,0.7-1.1,1.1,0.2c0.5,2.2,1.2,4.3,1.9,6.4c0.5,1.4,1.8,5.6,2,6.3c0.1,0.3,0.3,0.8,0.5,1.1C245.5,87.5,245.8,88.1,244.9,88.2z M25.6,70.2c-0.7-0.2-2.1,0.5-3.2,0.5c-6.3,0-15.8,0.4-21.2-0.1c-0.4,0-0.9-0.1-1.1,0.6c-0.4,2.1,3.3,0.1,4,1.1c0.2,0.3,0.2,0.8,0.2,1.3c0.2,2.2-0.1,4.4-0.1,6.7c0,2.4,0.2,4.4,0.1,6.7c0,0.6-0.2,1.5-0.3,1.7c-0.8,1.1-3.9-0.3-3.9,1c-0.2,1.1,1.6,0.5,2.5,0.5c3.3-0.1,7.6,0,10.9,0.1c1,0,2.9,0.5,2.8-0.6c0.1-1.3-3.1,0.3-3.8-1c-0.4-0.7-0.3-2.2-0.3-3.6c0-4.5-0.3-9,0.1-12.3c0.2-0.7,3.2-0.7,5-0.7c1.6,0,4.2-0.2,5.4,0c0.6,0.1,0.5,0.4,0.6,1c0.1,0.9,0.1,2.4,1.9,2.3c0.7,0,0.3-1.8,0.6-2.4C26.3,71.5,26.3,70.4,25.6,70.2zM192.5,73.2c0.8,0.3,1.5,0.7,2,1.2c1,0.6,1.1,3.3,3.1,2.4c0.4-0.1,0-4.1-0.9-4.2c-1.1-0.2-1.7,0.3-2.9-0.2c-0.4-0.2-0.9-0.6-1.3-0.8C191.7,71.2,191,72.6,192.5,73.2z M86.1,72.9c-1.1-0.8-1.4-0.9-2.9-1.4c-0.5-0.1-1-0.4-1.5-0.5c-2.6-0.7-7-0.3-9.9-0.2c-3.9,0.2-7.9-0.3-10.9-0.2c-0.5,0-2.2-0.3-2.5,0.8c-0.2,2.5,4.5,0.4,5.2,1.3c0.2,0.2,0.2,0.6,0.2,1.2c0.1,1.7-0.1,4.2-0.1,6.8c0,2.5,0.2,5.1,0,7c0,0.4-0.2,1.1-0.3,1.2c-0.9,1.2-3.7-0.6-3.9,0.9c0.1,1.3,2.3,0.6,3.5,0.6c3.6-0.1,7.8,0,10.8,0.1c0.6,0,2.2,0.2,2.1-0.8c-0.2-1.2-3.2,0.5-3.9-1c-0.3-0.7-0.3-2.5,0.1-3.2c0.5-0.9,3.1-0.6,4.4-0.6c0.9,0,2,0.2,2.9,0.2c4.3,0,6.3-1.6,6.6-1.8c0.3-0.1,1.7-1.3,1.9-1.5c0.2-0.3,1.1-1.7,1.2-2c0.4-1,0.5-2.2,0.2-3.3C88.7,74.9,87.2,73.7,86.1,72.9z M80.2,81.5c-0.1,0.5-1.1,1.9-2.7,2c-0.6,0-1.6,0.1-2.2,0.1c-1-0.1-0.9-0.1-2-0.1c-1.1,0-1.4-0.8-1.4-2.8c0-0.8,0-3,0-3.8c0-2.8-0.6-4.4,1.6-4.4c0.8,0,1.8-0.1,2.6,0c0.8,0.1,3.1-0.3,3.8,0.7c0.6,0.8,1.2,2.1,1.2,4.4C81,79.6,80.6,80.3,80.2,81.5z M157.5,78.3c-2.3,0.8-1.8,4.1,0.2,4.4C161.6,83.4,161.6,76.9,157.5,78.3zM197.3,83.7c-1.1-0.2-0.9,1.3-2.5,2.4c-0.3,0.2-1.7,1.1-2.1,1.3c-0.5,0.2-2.4,0.9-2.9,1c-0.8,0.3-2,0.4-3.1,0.5c-1,0.1-3.8,0.2-4.5,0c-0.8-0.2-2.2-0.2-2.7-0.4c-0.7-0.3-1.8-1.1-1.9-2.1c-0.3-2.4,0-4.1,0-6.1c0-2.1-0.6-4.6,0.1-6.2c0.4-0.9,1.1-2.1,2.1-2.5c2.7-1.2,9.8,0.6,10.2-0.2c0.6-1.4-2.5-1.2-4-1.2c-1.7,0-3.6-0.3-5.1-0.2c-1.8,0.2-3,0.3-4.7,0.9c-0.6,0.2-1.4,0.6-1.9,0.9c-0.3,0.1-2.6,1.7-3.3,2.4c-0.9,0.9-2.2,2.3-2.7,3.5c-0.5,1.4-0.4,4.1,0,5.1c0.5,1.2,3.5,4.8,5.7,5.7c0.4,0.2,3.4,1.3,4.1,1.5c2.8,0.5,9.3,0.9,10.9,0.3c0.4-0.1,2.8-0.9,3.6-1.4c0.8-0.6,1.5-0.9,2.1-1c1.2-0.2,1,0.2,2.1,0.4c1,0.2,1.5-2.7,1.5-4.1C198.3,83.7,197.7,83.8,197.3,83.7z M153,88.9c-0.7-0.3-2.3-0.1-3.1-0.3c-0.6-0.2-0.3-0.2-0.8-1c-0.3-0.4-1-2.2-1.3-2.7c-0.2-0.3-1.3-2.3-1.5-2.9c-0.3-0.7-0.9-2.5-1-2.8c-0.2-0.7-1.7-3.2-2-3.7c-0.1-0.2-1-1.9-1.3-3.4c-0.3-1.1-1.5-1.3-1.8-1.3c-3.5,0.1-7.3,0-10.5,0c-0.3,0-1.2,0-1.2,0.7c-0.1,1.9,1.9,0.8,2.7,0.9c0.7,0,1.8-0.1,2,0.2c0.1,0.3-0.5,1.9-0.9,2.5c-0.4,0.6-1.1,1.6-1.4,2.7c-0.3,1-2,4.6-2.2,5.4c-0.2,0.8-1.1,2.9-1.1,3.1l-0.7,2.2c-0.4,0.5-1.5,0.2-2.1,0.3c-0.4,0.1-1.3-0.2-1.7,0c-0.8,0.2-1.1,1.4-1.3,2.1c-0.3,0.8-0.6,1.3-0.5,2.3c0,0.3,0.6,0.6,0.9,0.6c0.4,0,1.7,0,1.7-0.4c0-0.4-0.1-1,0-1.6c0.6-2,0.4-1.4,1.5-1.4c0.8,0.1,3.2-0.1,4.3,0c3.9,0.1,7.1-0.2,11.5-0.3c2.2,0,5.2-0.1,7.3,0c1.7,0.1,2.6-0.4,2.7,0.4c0.2,0.4,0.9,2.3,0.9,2.7c0,0.3,0.9,0.6,1.6,0.6c1.1-0.1,1-0.5,1-0.8C154.2,91.7,153.6,89.3,153,88.9z M139.4,88.2c-0.5,0-1,0.1-1.3,0.1c-1.2,0-2.4,0.1-3.6,0.1c-0.9,0-5.3,0.2-5.6,0c-0.7-0.8,0.4-2,0.8-2.6c0.5-1,0.7-2,1.1-3.1c0.4-1.2,0.8-2.2,1.2-3.4c0.5-1.4,1.1-2.8,1.7-4.1c0.2-0.6,0.5-1.3,0.7-1.9c0.1-0.5,0.7-1.1,1.1,0.2c0.5,2.2,1.2,4.3,1.9,6.4c0.5,1.4,1.8,5.6,2,6.3c0.1,0.3,0.3,0.8,0.5,1.1C140.1,87.5,140.4,88.1,139.4,88.2z M226.9,89.7c0-1.2-0.6-0.3-1.1-1.2c-0.2-0.3-0.2-0.8-0.4-1.3c-0.3-0.6-1.1-2.3-1.2-2.6c-0.2-0.7-0.8-1.2-1.1-1.9c-0.2-0.6-1.1-2.5-1.3-2.9c-0.2-0.5-1.4-3-1.6-3.7c-0.4-1.2-1-1.9-1.3-2.7c-0.1-0.3-0.3-0.8-0.4-1.1c-0.5-1.3-1.4-1.5-2.7-1.4c-2.5,0.1-7.3-0.2-9.4-0.2c-0.3,0-1.6,0.1-1.2,0.9c0.1,1.1,4.3-0.1,4.1,0.7c-0.3,1.2-1,3.9-2.3,6.1c0,0-1.1,1.9-1.3,2.7c0,0-0.9,1.9-1.5,3c-0.2,0.4-0.4,0.8-0.5,1.3c-0.1,0.3-0.2,0.6-0.3,0.9c-0.1,0.3-0.3,0.4-0.5,0.7c-0.2,0.5-0.6,0.9-0.9,1.5c-0.2,0.3-0.5,0.4-0.8,0.6c-1.1,0.1-2,0.3-2.1,0.7c0,1,1.5,0.7,2.2,0.6c1.4-0.1,3.8,0.3,3.8-0.5c0-0.2,0.1-0.5-0.1-0.6c-0.2-0.1-0.4-0.1-0.9-0.1c-0.1,0-0.5,0-0.4-0.4c0.1-0.3,0.2-0.6,0.3-0.9c0.2-0.6,0.7-1.3,0.9-1.9c0.2-0.6,0.8-1.1,1.3-1.1c1.6,0,2.5,0,4.2,0c1.6,0,3.3-0.3,4.6-0.1c0.6,0.1,0.9,0.1,1.2,0.9c0.3,0.7,0.6,1.5,0.9,2.3c0.1,0.2,0.1,0.3,0.2,0.5c0.3,0.8-2.4-0.1-2,1.4c0.3,0.8,1.3,0.3,2,0.2c2.5-0.1,6-0.2,8.7-0.1C226.9,90.1,226.9,90.1,226.9,89.7zM215.2,83.4c-0.3,0.1-0.8,0.1-1.1,0.1c-1.9,0-3.9,0-5.8,0c-0.5,0-1.7,0-1.4-0.7c0.2-0.5,0.3-1,0.5-1.4c0.3-0.7,0.7-1.4,0.9-2.1c0.2-0.6,0.4-1.2,0.7-1.8c0.2-0.5,0.4-0.9,0.5-1.4c0.1-0.7,0.5-1.3,0.8-2c0.2-0.4,0.8-2.3,1.2-1.4c0.1,0.3,0.4,1,0.6,1.3c0.2,0.5,0.4,1,0.6,1.5c0.5,1.2,1,2.4,1.4,3.6c0.2,0.5,0.2,1,0.4,1.5c0.2,0.4,0.3,0.8,0.4,1.2c0.1,0.3,0.2,0.7,0.3,1C215.2,83,215.4,83.3,215.2,83.4z M121.7,76.7c-0.8-1.2-1.6-2.4-2.8-3.3c-0.4-0.3-2.1-1.3-2.4-1.5c-0.6-0.3-3.3-1.4-4.1-1.5c-1.6-0.4-8.1-0.2-9-0.1c-1.5,0.2-4.6,1.4-5.1,1.6c-0.3,0.1-2.1,1.2-2.5,1.5c-0.3,0.2-1.7,1.5-1.9,1.7c-0.3,0.4-1.5,2.2-1.6,2.6c-0.5,1.5-0.4,3.9,0,5.2c0.2,0.7,1.4,2.4,1.6,2.7c0.3,0.4,1.1,1,1.7,1.5c0.8,0.6,1.8,1.3,2.5,1.6c0.5,0.2,2.5,1.1,3.1,1.3c1.8,0.7,5.6,0.3,5.7,0.3c0.3,0,3.3,0.2,4.2,0.1c1.9-0.1,5.1-1.5,5.5-1.7c0.4-0.2,2.2-1.3,2.6-1.6c0.3-0.2,1.5-1.3,1.7-1.5c0.3-0.3,1.5-2.4,1.6-2.7C123.2,80.6,122.5,78,121.7,76.7z M114.7,85.2c-0.3,1.1-0.3,1.7-1.1,2.2c-0.8,0.5-1.1,0.8-2,1c-0.6,0.1-1.8,0.4-2.4,0.4c-2.8,0.3-4-0.3-5.5-0.4c-2-0.1-2.8-1-3.6-3.4c-0.5-1.6-0.2-2.6-0.4-4.3c-0.2-1.3-0.2-3.1,0-4.4c0.1-0.7,0-1.4,0.5-2.4c0.3-0.7,0.7-1.2,1.4-1.5c1.8-0.6,2.4-0.7,4.3-0.6l1.3,0c0.8,0,1.8,0.1,2.6,0.1c1.2,0.1,2.1,0.3,3.3,0.8c1,0.4,0.7,1.1,1.2,2.1c0.5,1.1,0.5,2.5,0.5,3.7C114.7,80.7,115.3,83,114.7,85.2z"/></g></g></svg>