<?xml version="1.0" standalone="no"?><!-- Generator: Gravit.io --><svg xmlns="http://www.w3.org/2000/svg" xmlns:xlink="http://www.w3.org/1999/xlink" style="isolation:isolate" viewBox="0 0 370.5 253" width="370.5" height="253"><defs><clipPath id="_clipPath_u7za6BEa6UW1VWJDosWK5JNKKlT6YSIY"><rect width="370.5" height="253"/></clipPath></defs><g clip-path="url(#_clipPath_u7za6BEa6UW1VWJDosWK5JNKKlT6YSIY)"><g id="Group"><path d=" M 19.846 120.246 C 11.354 151.674 51.191 173.969 49.062 175.8 C 46.934 177.63 5.872 153.745 10.614 120.191 C 15.357 86.637 56.856 74.558 57.045 77.67 C 57.234 80.784 28.339 88.817 19.846 120.246 Z " fill="rgb(0,0,0)"/><path d=" M 95.765 67.244 Q 97.607 70.538 115.966 65.67 Q 104.188 27.188 143.933 12.722 Q 205.241 3.373 233.373 45.033 Q 257.688 37.462 255.909 35.313 Q 254.131 33.164 234.351 36.128 Q 196.47 -5.848 147.3 4.468 Q 100.166 13.888 108.092 63.551 Q 93.922 63.95 95.765 67.244 Z " fill="rgb(0,0,0)"/><path d=" M 40.482 34.661 C 38.034 36.627 120.883 157.882 125.144 159.834 C 129.404 161.786 153.036 150.824 155.717 142.782 C 158.399 134.74 51.136 34.816 40.482 34.661 Z " fill="rgb(0,0,0)"/><path d=" M 289.47 45.033 C 285.099 50.924 325.789 61.157 306.305 110.254 C 305.566 112.568 328.226 125.238 329.275 122.201 C 330.326 119.163 316.866 115.417 311.246 110.254 C 328.226 70.903 299.475 33.137 289.47 45.033 Z " fill="rgb(0,0,0)"/><rect x="286.211" y="128.666" width="74.055" height="7.013" transform="matrix(1,0,0,1,0,0)" fill="rgb(0,0,0)"/><rect x="286.211" y="139.293" width="74.055" height="7.013" transform="matrix(1,0,0,1,0,0)" fill="rgb(0,0,0)"/><rect x="286.011" y="149.919" width="74.055" height="7.013" transform="matrix(1,0,0,1,0,0)" fill="rgb(0,0,0)"/><path d=" M 329.71 160.974 C 323.596 167.633 316.559 177.075 317.763 178.08 C 318.967 179.085 332.855 170.314 337.313 163.147 L 329.71 160.974 Z " fill="rgb(0,0,0)"/><path d=" M 73.717 187.095 L 318.723 184.869 Q 211.637 179.451 193.622 168.577 Q 222.602 150.212 236.414 132.301 Q 223.333 132.304 223.49 131.813 Q 240.876 119.147 258.408 96.243 Q 246.358 99.045 246.569 98.795 C 252.994 91.601 272.307 69.807 275.351 58.61 Q 262.074 64.325 262.589 63.551 C 274.5 51.533 296.429 20.832 298.256 0 Q 197.033 136.22 128.13 169.935 C 95.415 172.239 79.333 179.451 73.717 187.095 Z " fill="rgb(0,0,0)"/></g><g transform="matrix(1,0,0,1,0,187.095)"><text transform="matrix(1,0,0,1,33.14,51.54)" style="font-family:&quot;Podkova&quot;;font-weight:700;font-size:60px;font-style:normal;fill:#000000;stroke:none;">МРЗ ТЕМП</text></g></g></svg>