<?xml version="1.0" encoding="UTF-8" standalone="no"?>
<svg
   xmlns:dc="http://purl.org/dc/elements/1.1/"
   xmlns:cc="http://creativecommons.org/ns#"
   xmlns:rdf="http://www.w3.org/1999/02/22-rdf-syntax-ns#"
   xmlns:svg="http://www.w3.org/2000/svg"
   xmlns="http://www.w3.org/2000/svg"
   viewBox="0 0 265.1875 60.950001"
   height="60.950001"
   width="265.1875"
   xml:space="preserve"
   version="1.1"
   id="svg2"><metadata
     id="metadata8"><rdf:RDF><cc:Work
         rdf:about=""><dc:format>image/svg+xml</dc:format><dc:type
           rdf:resource="http://purl.org/dc/dcmitype/StillImage" /></cc:Work></rdf:RDF></metadata><defs
     id="defs6" /><g
     transform="matrix(1.25,0,0,-1.25,0,60.95)"
     id="g10"><g
       transform="scale(0.1,0.1)"
       id="g12"><path
         id="path14"
         style="fill:#2151a8;fill-opacity:1;fill-rule:nonzero;stroke:none"
         d="m 0,14.25 63.3281,0 0,473.332 L 0,487.582 0,14.25 Z" /><path
         id="path16"
         style="fill:#2151a8;fill-opacity:1;fill-rule:nonzero;stroke:none"
         d="m 160,14.25 103.328,0 0,473.328 -103.328,0 0,-473.328 z" /><path
         id="path18"
         style="fill:#2151a8;fill-opacity:1;fill-rule:nonzero;stroke:none"
         d="m 313.336,14.25 386.664,0 0,473.324 -386.664,0 0,-473.324 z" /><path
         id="path20"
         style="fill:#2151a8;fill-opacity:1;fill-rule:nonzero;stroke:none"
         d="m 760.934,486.941 47.601,0 0,-194.636 177.891,194.636 64.634,0 -150.322,-158.996 156.842,-233.5583 -62.639,0 -127.777,198.4653 -58.629,-62.5 0,-135.9653 -47.601,0 0,392.5543" /><path
         id="path22"
         style="fill:#2151a8;fill-opacity:1;fill-rule:nonzero;stroke:none"
         d="m 1115.16,353.711 c 22.55,20.836 49.61,31.262 81.68,31.262 35.57,0 65.14,-12.621 87.69,-38.387 22.54,-25.777 34.07,-60.856 34.07,-105.816 0,-72.918 -20.55,-111.844 -59.13,-135.426 -19.04,-11.5042 -40.08,-16.9963 -62.63,-16.9963 -36.59,0 -65.65,12.6093 -88.2,37.8323 -22.55,25.773 -33.57,62.511 -33.57,110.207 0,52.625 13.52,91.558 40.09,117.324 z m 81.68,-225.891 c 44.09,0 76.66,35.637 76.66,110.215 0,70.18 -33.07,107.453 -76.66,107.453 -44.11,0 -76.18,-36.183 -76.18,-109.101 0,-72.375 32.07,-108.567 76.18,-108.567" /><path
         id="path24"
         style="fill:#2151a8;fill-opacity:1;fill-rule:nonzero;stroke:none"
         d="m 1369.17,94.3867 44.0938,0 0,392.555 -44.0938,0 0,-392.555 z" /><path
         id="path26"
         style="fill:#2151a8;fill-opacity:1;fill-rule:nonzero;stroke:none"
         d="m 1481.39,378.934 39.59,0 0,-40.024 c 16.03,27.965 44.1,46.063 78.67,46.063 38.08,0 63.14,-18.645 73.16,-49.899 20.55,33.446 47.61,49.899 80.18,49.899 52.11,0 80.67,-30.164 80.67,-95.403 l 0,-195.1833 -44.09,0 0,179.2853 c 0,37.82 -4.51,51.531 -20.05,61.953 -7.51,4.93 -16.04,7.672 -26.05,7.672 -36.58,0 -63.65,-25.223 -63.65,-83.883 l 0,-165.0273 -44.09,0 0,184.7613 c 0,43.325 -13.53,64.149 -46.1,64.149 -38.58,-2.742 -66.64,-25.223 -64.14,-101.434 l 0,-147.4763 -44.1,0 0,284.5473" /><path
         id="path28"
         style="fill:#2151a8;fill-opacity:1;fill-rule:nonzero;stroke:none"
         d="m 2112.23,179.91 c -14.53,-58.66 -54.12,-91.5623 -114.24,-91.5623 -76.17,0 -123.77,53.1833 -123.77,145.8403 0,47.707 11.01,84.984 33.57,111.3 22.55,26.317 51.61,39.485 87.69,39.485 34.58,0 63.15,-13.168 85.18,-38.934 22.05,-25.777 33.08,-61.957 33.08,-109.105 0,-2.746 0,-7.129 -0.5,-12.61 l -193.92,0 c 3.5,-63.054 35.07,-96.504 78.67,-96.504 32.56,0 55.12,16.993 68.65,58.118 l 45.59,-6.028 z m -45.09,83.891 c -2,24.121 -7.52,42.215 -16.53,53.726 -14.04,18.641 -32.07,27.961 -54.63,27.961 -40.59,0 -70.66,-31.797 -74.16,-81.687 l 145.32,0" /><path
         id="path30"
         style="fill:#2151a8;fill-opacity:1;fill-rule:nonzero;stroke:none"
         d="m 767.891,52.7617 0,-16.3086 c 1.851,0 3.172,0.3633 3.902,1.1641 0.727,0.7891 1.848,3.1133 3.305,6.8086 1.125,2.9765 2.05,4.9297 2.777,5.8789 0.727,0.9336 1.52,1.5898 2.441,1.9531 0.93,0.3594 2.383,0.5039 4.43,0.5039 l 1.192,0 0,-5.289 -1.649,0 c -1.523,0 -2.449,-0.2149 -2.91,-0.7227 -0.465,-0.5117 -1.125,-2.1016 -2.047,-4.6406 -0.863,-2.461 -1.719,-4.211 -2.445,-5.1446 -0.731,-0.9414 -1.86,-1.7421 -3.375,-2.539 2.445,-0.7266 4.886,-3.2656 7.336,-7.6094 l 6.347,-11.6719 -6.347,0 -6.215,11.6719 c -2.578,4.6367 -4.094,5.7227 -6.742,5.7227 l 0,-17.3946 -5.817,0 0,37.6172 5.817,0" /><path
         id="path32"
         style="fill:#2151a8;fill-opacity:1;fill-rule:nonzero;stroke:none"
         d="m 794.172,49.4336 c 2.973,2.7539 6.543,4.1289 10.769,4.1289 4.7,0 8.598,-1.668 11.567,-5.0781 2.98,-3.4063 4.504,-8.0469 4.504,-13.9805 0,-9.6406 -2.715,-14.7851 -7.805,-17.9101 -2.508,-1.5157 -5.285,-2.2461 -8.266,-2.2461 -4.824,0 -8.656,1.6679 -11.632,5 -2.973,3.4062 -4.426,8.2695 -4.426,14.5703 0,6.9609 1.785,12.1054 5.289,15.5156 z m 10.769,-29.8633 c 5.821,0 10.118,4.707 10.118,14.5703 0,9.2774 -4.36,14.1992 -10.118,14.1992 -5.808,0 -10.043,-4.7851 -10.043,-14.4218 0,-9.5625 4.235,-14.3477 10.043,-14.3477" /><path
         id="path34"
         style="fill:#2151a8;fill-opacity:1;fill-rule:nonzero;stroke:none"
         d="m 833.598,52.7617 0,-15.6523 16.129,0 0,15.6523 5.82,0 0,-37.6172 -5.82,0 0,16.6719 -16.129,0 0,-16.6719 -5.817,0 0,37.6172 5.817,0" /><path
         id="path36"
         style="fill:#2151a8;fill-opacity:1;fill-rule:nonzero;stroke:none"
         d="m 892.324,28.125 c -1.25,-8.6992 -6.808,-13.7773 -14.277,-13.7773 -9.453,0 -15.602,6.8828 -15.602,19.4218 -0.394,12.3243 6.543,20.0782 15.602,19.793 7.469,0 12.359,-4.2773 13.687,-11.8906 l -5.621,-0.9414 c -1.054,5 -3.902,7.6093 -7.804,7.6093 -5.883,0 -9.911,-4.4218 -9.911,-14.3476 0,-10.1445 3.832,-14.4219 9.586,-14.4219 4.559,0 7.797,2.9688 8.586,9.3477 l 5.754,-0.793" /><path
         id="path38"
         style="fill:#2151a8;fill-opacity:1;fill-rule:nonzero;stroke:none"
         d="m 896.324,6.73828 c 1.258,-0.35937 2.375,-0.57812 3.371,-0.57812 2.575,0 3.961,1.01953 4.957,2.67968 0.399,0.65235 0.993,2.24606 1.789,4.78516 0.125,0.3594 0.332,0.8672 0.528,1.5195 l -13.024,37.6172 6.278,0 7.14,-21.8164 c 0.922,-2.7539 1.719,-5.6523 2.446,-8.6992 0.66,2.9766 1.457,5.8008 2.379,8.5547 l 7.339,21.9609 5.821,0 -13.024,-38.1914 C 910.934,10.4375 909.809,7.60547 909.082,6.08594 906.969,1.80469 904.453,0 900.754,0 c -1.125,0 -2.387,0.214844 -3.774,0.722656 l -0.656,6.015624" /><path
         id="path40"
         style="fill:#2151a8;fill-opacity:1;fill-rule:nonzero;stroke:none"
         d="m 960.082,52.7617 0,-37.6172 -5.758,0 0,32.3282 -15.398,0 0,-18.7032 c 0,-4.414 -0.133,-7.3164 -0.395,-8.6914 -0.265,-1.3789 -0.992,-2.539 -2.183,-3.5547 C 935.23,15.5078 933.574,15 931.391,15 c -1.391,0 -2.907,0.0781 -4.692,0.1445 l 0,5.3633 2.516,0 c 2.441,0 3.301,0.5078 3.629,1.6719 0.203,0.5742 0.265,2.5391 0.265,5.7969 l 0,24.7851 26.973,0" /><path
         id="path42"
         style="fill:#2151a8;fill-opacity:1;fill-rule:nonzero;stroke:none"
         d="m 974.453,52.7617 0,-14.7148 7.406,0 c 9.586,0 14.942,-4.3477 14.942,-11.5235 0,-3.1171 -1.059,-5.8007 -3.242,-8.0468 -2.18,-2.2461 -5.621,-3.3321 -10.375,-3.3321 l -14.547,0 0,37.6172 5.816,0 z m 6.152,-32.4023 c 7.333,0 10.176,1.8867 10.176,6.164 0,1.6016 -0.59,3.0469 -1.715,4.2774 -1.128,1.3086 -3.699,1.9609 -7.734,1.9609 l -6.879,0 0,-12.4023 6.152,0" /><path
         id="path44"
         style="fill:#2151a8;fill-opacity:1;fill-rule:nonzero;stroke:none"
         d="m 1027.89,52.7617 0,-5.289 -11.03,0 0,-32.3282 -5.76,0 0,32.3282 -11.04,0 0,5.289 27.83,0" /><path
         id="path46"
         style="fill:#2151a8;fill-opacity:1;fill-rule:nonzero;stroke:none"
         d="m 1043.14,14.3477 c -7.48,0 -11.71,4.4218 -11.71,10.7304 0,5.8008 3.84,9.4258 8.34,10.8008 1.12,0.2813 2.84,0.5742 5.15,0.9375 4.7,0.6563 8.2,1.375 10.38,2.1758 l 0,1.6601 c 0,2.6172 -0.53,4.4258 -1.59,5.5196 -1.52,1.4453 -3.69,2.1679 -6.67,2.1679 -5.49,0 -7.67,-1.8867 -8.93,-7.1796 l -5.68,0.8828 c 1.52,7.7539 6.21,11.5195 15.47,11.5195 8.99,0 12.1,-3.4062 12.96,-8.2578 0.19,-1.0938 0.33,-3.125 0.33,-5.9492 l 0,-8.4766 c 0,-5.8789 0.13,-9.6484 0.33,-11.2422 0.26,-1.5234 0.79,-3.0429 1.52,-4.4922 l -6.09,0 c -0.59,1.3086 -0.99,2.8243 -1.19,4.6407 -4.3,-4.0625 -8.06,-5.4375 -12.62,-5.4375 z m 2.65,17.2539 c -4.77,-0.8008 -6.29,-1.5235 -7.35,-3.3399 -0.53,-0.9375 -0.79,-1.9531 -0.79,-3.039 0,-3.4063 2.38,-5.9454 6.88,-5.9454 4.49,0 8.19,2.3243 9.85,6.0157 0.6,1.457 0.92,3.5547 0.92,6.3789 l 0,2.3203 c -2.11,-0.9453 -5.28,-1.7344 -9.51,-2.3906" /><path
         id="path48"
         style="fill:#2151a8;fill-opacity:1;fill-rule:nonzero;stroke:none"
         d="m 1076.02,52.7617 0,-32.4023 16.07,0 0,32.4023 5.82,0 0,-32.4023 3.76,0 0,-15.80081 -4.76,0 0,10.58591 -26.71,0 0,37.6172 5.82,0" /><path
         id="path50"
         style="fill:#2151a8;fill-opacity:1;fill-rule:nonzero;stroke:none"
         d="m 1113.79,52.7617 0,-28.6992 16.07,28.6992 6.28,0 0,-37.6172 -5.82,0 0,28.4883 -16.06,-28.4883 -6.28,0 0,37.6172 5.81,0" /><path
         id="path52"
         style="fill:#2151a8;fill-opacity:1;fill-rule:nonzero;stroke:none"
         d="m 1150.71,52.7617 0,-28.6992 16.06,28.6992 6.28,0 0,-37.6172 -5.82,0 0,28.4883 -16.06,-28.4883 -6.28,0 0,37.6172 5.82,0" /><path
         id="path54"
         style="fill:#2151a8;fill-opacity:1;fill-rule:nonzero;stroke:none"
         d="m 1205.98,52.7617 0,-28.6992 16.07,28.6992 6.27,0 0,-37.6172 -5.82,0 0,28.4883 -16.05,-28.4883 -6.28,0 0,37.6172 5.81,0" /><path
         id="path56"
         style="fill:#2151a8;fill-opacity:1;fill-rule:nonzero;stroke:none"
         d="m 1254.51,6.73828 c 1.26,-0.35937 2.38,-0.57812 3.37,-0.57812 2.57,0 3.97,1.01953 4.96,2.67968 0.39,0.65235 0.99,2.24606 1.79,4.78516 0.12,0.3594 0.33,0.8672 0.52,1.5195 l -13.02,37.6172 6.28,0 7.14,-21.8164 c 0.92,-2.7539 1.72,-5.6523 2.44,-8.6992 0.66,2.9766 1.46,5.8008 2.38,8.5547 l 7.34,21.9609 5.82,0 -13.02,-38.1914 c -1.39,-4.1328 -2.52,-6.96483 -3.24,-8.48436 C 1265.15,1.80469 1262.64,0 1258.93,0 c -1.12,0 -2.38,0.214844 -3.76,0.722656 l -0.66,6.015624" /><path
         id="path58"
         style="fill:#2151a8;fill-opacity:1;fill-rule:nonzero;stroke:none"
         d="m 1315.55,52.7617 0,-37.6172 -5.82,0 0,32.3282 -15.46,0 0,-32.3282 -5.82,0 0,37.6172 27.1,0" /><path
         id="path60"
         style="fill:#2151a8;fill-opacity:1;fill-rule:nonzero;stroke:none"
         d="m 1324.25,52.7617 5.29,0 0,-4.9297 c 2.44,3.8477 5.48,5.7305 9.91,5.7305 8.93,0.3633 14.68,-8.5508 14.54,-19.3516 0,-7.6093 -2.57,-14.2109 -7.4,-17.4726 -2.38,-1.5938 -4.89,-2.3906 -7.53,-2.3906 -3.9,0 -7.08,1.8828 -9,4.7148 l 0,-18.269531 -5.81,0 0,51.968731 z m 14.41,-33.1914 c 5.22,0 9.38,4.6406 9.38,14.707 0,9.5704 -4.09,14.2774 -9.12,14.2774 -2.45,0 -4.63,-1.2969 -6.54,-3.8359 -1.92,-2.5391 -2.84,-6.1641 -2.84,-11.0196 0,-9.6367 4.09,-14.1289 9.12,-14.1289" /><path
         id="path62"
         style="fill:#2151a8;fill-opacity:1;fill-rule:nonzero;stroke:none"
         d="m 1370.68,14.3477 c -7.47,0 -11.7,4.4218 -11.7,10.7304 0,5.8008 3.83,9.4258 8.33,10.8008 1.12,0.2813 2.85,0.5742 5.15,0.9375 4.7,0.6563 8.2,1.375 10.39,2.1758 l 0,1.6601 c 0,2.6172 -0.54,4.4258 -1.59,5.5196 -1.53,1.4453 -3.7,2.1679 -6.68,2.1679 -5.48,0 -7.67,-1.8867 -8.93,-7.1796 l -5.68,0.8828 c 1.52,7.7539 6.22,11.5195 15.48,11.5195 8.98,0 12.09,-3.4062 12.95,-8.2578 0.19,-1.0938 0.33,-3.125 0.33,-5.9492 l 0,-8.4766 c 0,-5.8789 0.13,-9.6484 0.33,-11.2422 0.26,-1.5234 0.79,-3.0429 1.52,-4.4922 l -6.08,0 c -0.59,1.3086 -0.99,2.8243 -1.2,4.6407 -4.29,-4.0625 -8.06,-5.4375 -12.62,-5.4375 z m 2.65,17.2539 c -4.77,-0.8008 -6.28,-1.5235 -7.35,-3.3399 -0.52,-0.9375 -0.78,-1.9531 -0.78,-3.039 0,-3.4063 2.37,-5.9454 6.87,-5.9454 4.49,0 8.2,2.3243 9.85,6.0157 0.6,1.457 0.93,3.5547 0.93,6.3789 l 0,2.3203 c -2.12,-0.9453 -5.29,-1.7344 -9.52,-2.3906" /><path
         id="path64"
         style="fill:#2151a8;fill-opacity:1;fill-rule:nonzero;stroke:none"
         d="m 1411.1,52.7617 c 3.3,0 5.75,-0.289 7.34,-0.9453 1.65,-0.5781 3.03,-1.6601 4.16,-3.332 1.13,-1.5899 1.72,-3.4727 1.72,-5.7227 0,-3.5508 -1.39,-6.2383 -4.1,-8.0429 3.24,-1.1641 5.62,-4.6407 5.62,-9.0665 -0.46,-7.1757 -4.56,-10.5078 -12.69,-10.5078 l -15.47,0 0,37.6172 13.42,0 z m -1.39,-15.8672 c 2.45,0 4.17,0.1368 5.09,0.4297 0.92,0.293 1.72,0.8672 2.45,1.7383 0.72,0.8672 1.12,1.8828 1.12,3.1172 0,3.9922 -2.31,5.293 -8.46,5.293 l -6.41,0 0,-10.5782 6.21,0 z m 1.45,-16.5351 c 6.61,0 8.53,1.5273 8.73,5.5859 0,2.3945 -1.52,4.7852 -3.83,5.293 -1.13,0.2851 -2.98,0.4336 -5.49,0.4336 l -7.07,0 0,-11.3125 7.66,0" /><path
         id="path66"
         style="fill:#2151a8;fill-opacity:1;fill-rule:nonzero;stroke:none"
         d="m 1462.56,52.7617 0,-37.6172 -5.76,0 0,32.3282 -15.39,0 0,-18.7032 c 0,-4.414 -0.14,-7.3164 -0.4,-8.6914 -0.27,-1.3789 -0.99,-2.539 -2.18,-3.5547 C 1437.7,15.5078 1436.05,15 1433.87,15 c -1.39,0 -2.91,0.0781 -4.69,0.1445 l 0,5.3633 2.51,0 c 2.44,0 3.3,0.5078 3.64,1.6719 0.19,0.5742 0.26,2.5391 0.26,5.7969 l 0,24.7851 26.97,0" /><path
         id="path68"
         style="fill:#2151a8;fill-opacity:1;fill-rule:nonzero;stroke:none"
         d="m 1500.73,26.4531 c -1.91,-7.7539 -7.14,-12.1054 -15.08,-12.1054 -10.04,0 -16.31,7.0312 -16.31,19.2851 0,6.2969 1.44,11.2305 4.42,14.707 2.98,3.4766 6.81,5.2227 11.57,5.2227 4.55,0 8.33,-1.7461 11.23,-5.1445 2.91,-3.4063 4.37,-8.1953 4.37,-14.4258 0,-0.3594 0,-0.9453 -0.06,-1.668 l -25.59,0 c 0.46,-8.3398 4.63,-12.7539 10.37,-12.7539 4.3,0 7.28,2.2461 9.07,7.6758 l 6.01,-0.793 z m -5.96,11.086 c -0.25,3.1914 -0.98,5.5859 -2.16,7.1093 -1.86,2.461 -4.24,3.6914 -7.21,3.6914 -5.36,0 -9.33,-4.1992 -9.79,-10.8007 l 19.16,0" /><path
         id="path70"
         style="fill:#2151a8;fill-opacity:1;fill-rule:nonzero;stroke:none"
         d="m 1513.78,52.7617 0,-15.6523 16.12,0 0,15.6523 5.81,0 0,-37.6172 -5.81,0 0,16.6719 -16.12,0 0,-16.6719 -5.82,0 0,37.6172 5.82,0" /><path
         id="path72"
         style="fill:#2151a8;fill-opacity:1;fill-rule:nonzero;stroke:none"
         d="m 1550.23,52.7617 0,-28.6992 16.07,28.6992 6.28,0 0,-37.6172 -5.82,0 0,28.4883 -16.07,-28.4883 -6.28,0 0,37.6172 5.82,0" /><path
         id="path74"
         style="fill:#2151a8;fill-opacity:1;fill-rule:nonzero;stroke:none"
         d="m 1610.81,26.4531 c -1.92,-7.7539 -7.14,-12.1054 -15.08,-12.1054 -10.04,0 -16.32,7.0312 -16.32,19.2851 0,6.2969 1.45,11.2305 4.43,14.707 2.98,3.4766 6.81,5.2227 11.57,5.2227 4.55,0 8.32,-1.7461 11.23,-5.1445 2.91,-3.4063 4.37,-8.1953 4.37,-14.4258 0,-0.3594 0,-0.9453 -0.06,-1.668 l -25.59,0 c 0.46,-8.3398 4.63,-12.7539 10.37,-12.7539 4.3,0 7.28,2.2461 9.07,7.6758 l 6.01,-0.793 z m -5.96,11.086 c -0.25,3.1914 -0.98,5.5859 -2.17,7.1093 -1.85,2.461 -4.23,3.6914 -7.2,3.6914 -5.36,0 -9.33,-4.1992 -9.79,-10.8007 l 19.16,0" /><path
         id="path76"
         style="fill:#2151a8;fill-opacity:1;fill-rule:nonzero;stroke:none"
         d="m 1664.5,28.125 c -1.26,-8.6992 -6.8,-13.7773 -14.29,-13.7773 -9.44,0 -15.59,6.8828 -15.59,19.4218 -0.4,12.3243 6.54,20.0782 15.59,19.793 7.49,0 12.38,-4.2773 13.7,-11.8906 l -5.63,-0.9414 c -1.05,5 -3.89,7.6093 -7.79,7.6093 -5.89,0 -9.92,-4.4218 -9.92,-14.3476 0,-10.1445 3.82,-14.4219 9.57,-14.4219 4.58,0 7.81,2.9688 8.61,9.3477 l 5.75,-0.793" /><path
         id="path78"
         style="fill:#2151a8;fill-opacity:1;fill-rule:nonzero;stroke:none"
         d="m 1694.14,52.7617 0,-5.289 -11.04,0 0,-32.3282 -5.75,0 0,32.3282 -11.04,0 0,5.289 27.83,0" /><path
         id="path80"
         style="fill:#2151a8;fill-opacity:1;fill-rule:nonzero;stroke:none"
         d="m 1699.67,52.7617 5.28,0 0,-4.9297 c 2.45,3.8477 5.49,5.7305 9.91,5.7305 8.94,0.3633 14.68,-8.5508 14.55,-19.3516 0,-7.6093 -2.57,-14.2109 -7.4,-17.4726 -2.38,-1.5938 -4.89,-2.3906 -7.54,-2.3906 -3.9,0 -7.07,1.8828 -8.98,4.7148 l 0,-18.269531 -5.82,0 0,51.968731 z m 14.4,-33.1914 c 5.23,0 9.39,4.6406 9.39,14.707 0,9.5704 -4.1,14.2774 -9.12,14.2774 -2.45,0 -4.62,-1.2969 -6.55,-3.8359 -1.91,-2.5391 -2.84,-6.1641 -2.84,-11.0196 0,-9.6367 4.09,-14.1289 9.12,-14.1289" /><path
         id="path82"
         style="fill:#2151a8;fill-opacity:1;fill-rule:nonzero;stroke:none"
         d="m 1739.48,49.4336 c 2.98,2.7539 6.56,4.1289 10.79,4.1289 4.68,0 8.59,-1.668 11.57,-5.0781 2.97,-3.4063 4.49,-8.0469 4.49,-13.9805 0,-9.6406 -2.72,-14.7851 -7.81,-17.9101 -2.5,-1.5157 -5.28,-2.2461 -8.25,-2.2461 -4.83,0 -8.67,1.6679 -11.64,5 -2.98,3.4062 -4.43,8.2695 -4.43,14.5703 0,6.9609 1.78,12.1054 5.28,15.5156 z m 10.79,-29.8633 c 5.82,0 10.11,4.707 10.11,14.5703 0,9.2774 -4.36,14.1992 -10.11,14.1992 -5.83,0 -10.06,-4.7851 -10.06,-14.4218 0,-9.5625 4.23,-14.3477 10.06,-14.3477" /><path
         id="path84"
         style="fill:#2151a8;fill-opacity:1;fill-rule:nonzero;stroke:none"
         d="m 1778.93,52.7617 0,-28.6992 16.05,28.6992 6.28,0 0,-37.6172 -5.82,0 0,28.4883 -16.05,-28.4883 -6.28,0 0,37.6172 5.82,0" /><path
         id="path86"
         style="fill:#2151a8;fill-opacity:1;fill-rule:nonzero;stroke:none"
         d="m 1834.73,52.7617 0,-5.289 -11.04,0 0,-32.3282 -5.74,0 0,32.3282 -11.05,0 0,5.289 27.83,0" /><path
         id="path88"
         style="fill:#2151a8;fill-opacity:1;fill-rule:nonzero;stroke:none"
         d="m 1869.75,26.4531 c -1.93,-7.7539 -7.15,-12.1054 -15.08,-12.1054 -10.04,0 -16.32,7.0312 -16.32,19.2851 0,6.2969 1.45,11.2305 4.42,14.707 2.97,3.4766 6.81,5.2227 11.57,5.2227 4.55,0 8.33,-1.7461 11.23,-5.1445 2.91,-3.4063 4.37,-8.1953 4.37,-14.4258 0,-0.3594 0,-0.9453 -0.06,-1.668 l -25.59,0 c 0.46,-8.3398 4.64,-12.7539 10.38,-12.7539 4.29,0 7.27,2.2461 9.06,7.6758 l 6.02,-0.793 z m -5.96,11.086 c -0.27,3.1914 -0.99,5.5859 -2.18,7.1093 -1.85,2.461 -4.23,3.6914 -7.21,3.6914 -5.36,0 -9.31,-4.1992 -9.77,-10.8007 l 19.16,0" /><path
         id="path90"
         style="fill:#2151a8;fill-opacity:1;fill-rule:nonzero;stroke:none"
         d="m 1906.8,52.7617 0,-37.6172 -5.75,0 0,32.3282 -15.41,0 0,-18.7032 c 0,-4.414 -0.13,-7.3164 -0.41,-8.6914 -0.26,-1.3789 -0.98,-2.539 -2.18,-3.5547 C 1881.93,15.5078 1880.28,15 1878.1,15 c -1.39,0 -2.92,0.0781 -4.69,0.1445 l 0,5.3633 2.51,0 c 2.45,0 3.31,0.5078 3.63,1.6719 0.21,0.5742 0.27,2.5391 0.27,5.7969 l 0,24.7851 26.98,0" /><path
         id="path92"
         style="fill:#2151a8;fill-opacity:1;fill-rule:nonzero;stroke:none"
         d="m 1921.16,52.7617 0,-14.7148 7.4,0 c 9.59,0 14.95,-4.3477 14.95,-11.5235 0,-3.1171 -1.06,-5.8007 -3.24,-8.0468 -2.18,-2.2461 -5.62,-3.3321 -10.39,-3.3321 l -14.54,0 0,37.6172 5.82,0 z m 6.14,-32.4023 c 7.35,0 10.19,1.8867 10.19,6.164 0,1.6016 -0.6,3.0469 -1.72,4.2774 -1.12,1.3086 -3.71,1.9609 -7.73,1.9609 l -6.88,0 0,-12.4023 6.14,0" /><path
         id="path94"
         style="fill:#2151a8;fill-opacity:1;fill-rule:nonzero;stroke:none"
         d="m 1977.97,28.125 c -1.25,-8.6992 -6.81,-13.7773 -14.28,-13.7773 -9.45,0 -15.6,6.8828 -15.6,19.4218 -0.39,12.3243 6.55,20.0782 15.6,19.793 7.47,0 12.36,-4.2773 13.69,-11.8906 l -5.62,-0.9414 c -1.07,5 -3.91,7.6093 -7.8,7.6093 -5.89,0 -9.92,-4.4218 -9.92,-14.3476 0,-10.1445 3.83,-14.4219 9.59,-14.4219 4.56,0 7.8,2.9688 8.59,9.3477 l 5.75,-0.793" /><path
         id="path96"
         style="fill:#2151a8;fill-opacity:1;fill-rule:nonzero;stroke:none"
         d="m 2007.63,52.7617 0,-5.289 -11.05,0 0,-32.3282 -5.74,0 0,32.3282 -11.04,0 0,5.289 27.83,0" /><path
         id="path98"
         style="fill:#2151a8;fill-opacity:1;fill-rule:nonzero;stroke:none"
         d="m 2026.57,52.7617 c 3.31,0 5.75,-0.289 7.32,-0.9453 1.66,-0.5781 3.05,-1.6601 4.18,-3.332 1.12,-1.5899 1.72,-3.4727 1.72,-5.7227 0,-3.5508 -1.39,-6.2383 -4.1,-8.0429 3.24,-1.1641 5.62,-4.6407 5.62,-9.0665 -0.46,-7.1757 -4.56,-10.5078 -12.7,-10.5078 l -15.47,0 0,37.6172 13.43,0 z m -1.39,-15.8672 c 2.44,0 4.17,0.1368 5.09,0.4297 0.92,0.293 1.71,0.8672 2.44,1.7383 0.73,0.8672 1.13,1.8828 1.13,3.1172 0,3.9922 -2.32,5.293 -8.47,5.293 l -6.41,0 0,-10.5782 6.22,0 z m 1.45,-16.5351 c 6.61,0 8.54,1.5273 8.72,5.5859 0,2.3945 -1.51,4.7852 -3.83,5.293 -1.12,0.2851 -2.97,0.4336 -5.47,0.4336 l -7.09,0 0,-11.3125 7.67,0" /><path
         id="path100"
         style="fill:#2151a8;fill-opacity:1;fill-rule:nonzero;stroke:none"
         d="m 2051.31,49.4336 c 2.98,2.7539 6.55,4.1289 10.78,4.1289 4.69,0 8.59,-1.668 11.57,-5.0781 2.97,-3.4063 4.49,-8.0469 4.49,-13.9805 0,-9.6406 -2.71,-14.7851 -7.8,-17.9101 -2.51,-1.5157 -5.28,-2.2461 -8.26,-2.2461 -4.82,0 -8.66,1.6679 -11.63,5 -2.98,3.4062 -4.44,8.2695 -4.44,14.5703 0,6.9609 1.79,12.1054 5.29,15.5156 z m 10.78,-29.8633 c 5.82,0 10.12,4.707 10.12,14.5703 0,9.2774 -4.37,14.1992 -10.12,14.1992 -5.82,0 -10.05,-4.7851 -10.05,-14.4218 0,-9.5625 4.23,-14.3477 10.05,-14.3477" /><path
         id="path102"
         style="fill:#2151a8;fill-opacity:1;fill-rule:nonzero;stroke:none"
         d="m 2094.12,52.7617 8.99,-30.0781 10.04,30.0781 8.33,0 0,-37.6172 -5.82,0 0,30.2266 -10.11,-30.2266 -5.22,0 -9.58,31.75 0,-31.75 -5.69,0 0,37.6172 9.06,0" /></g></g></svg>